<?xml version="1.0" encoding="UTF-8"?>
<svg version="1.1" xmlns="http://www.w3.org/2000/svg" width="1024" height="1024">
<path d="M0 0 C0.99620361 0.1861084 1.99240723 0.3722168 3.01879883 0.56396484 C4.05818604 0.72687012 5.09757324 0.88977539 6.16845703 1.05761719 C8.37682264 1.40808849 10.58251355 1.77577599 12.78540039 2.15917969 C16.24078149 2.75743508 19.70092612 3.30250137 23.16723633 3.83349609 C38.95177212 6.26823052 38.95177212 6.26823052 46.20629883 7.75146484 C46.20629883 8.41146484 46.20629883 9.07146484 46.20629883 9.75146484 C45.54629883 9.75146484 44.88629883 9.75146484 44.20629883 9.75146484 C44.04129883 10.96833984 43.87629883 12.18521484 43.70629883 13.43896484 C41.2876863 24.21278428 32.79448726 34.89564321 25.20629883 42.75146484 C24.54629883 42.75146484 23.88629883 42.75146484 23.20629883 42.75146484 C22.87629883 43.74146484 22.54629883 44.73146484 22.20629883 45.75146484 C21.54629883 45.75146484 20.88629883 45.75146484 20.20629883 45.75146484 C20.20629883 46.41146484 20.20629883 47.07146484 20.20629883 47.75146484 C19.54629883 47.75146484 18.88629883 47.75146484 18.20629883 47.75146484 C17.87629883 48.74146484 17.54629883 49.73146484 17.20629883 50.75146484 C15.60473633 52.32958984 15.60473633 52.32958984 13.58129883 54.00146484 C10.05259789 56.97801294 6.82120142 60.11244001 3.65161133 63.46630859 C2.20629883 64.75146484 2.20629883 64.75146484 0.20629883 64.75146484 C0.20629883 65.41146484 0.20629883 66.07146484 0.20629883 66.75146484 C-1.24399287 68.03890599 -2.75867275 69.2538326 -4.29370117 70.43896484 C-20.86346306 83.71179079 -36.71371582 99.0254017 -49.79370117 115.75146484 C-50.44467773 116.53521484 -51.0956543 117.31896484 -51.76635742 118.12646484 C-61.60771723 130.02218406 -69.30440424 142.77891807 -75.79370117 156.75146484 C-76.33897461 157.89099609 -76.88424805 159.03052734 -77.44604492 160.20458984 C-93.2917528 194.87967579 -93.91621583 237.16494079 -80.70751953 272.7878418 C-73.36366347 291.37828886 -62.6612653 307.42563352 -48.79370117 321.75146484 C-47.93776367 322.64736328 -47.08182617 323.54326172 -46.19995117 324.46630859 C-42.07215133 328.98126323 -42.07215133 328.98126323 -36.79370117 331.75146484 C-36.13370117 332.43208984 -35.47370117 333.11271484 -34.79370117 333.81396484 C-10.64237703 358.60271396 30.27209472 369.16663017 63.75317383 369.95458984 C113.31813437 370.49341402 157.4295152 355.75916365 193.6940918 321.33935547 C219.46939186 296.10678696 233.83932789 258.85705644 234.23608398 223.06445312 C234.28119361 216.62636584 234.26264276 210.18940966 234.20629883 203.75146484 C233.54629883 203.42146484 232.88629883 203.09146484 232.20629883 202.75146484 C231.88012695 200.8112793 231.88012695 200.8112793 231.73754883 198.30224609 C229.02902213 165.40882384 209.03169555 134.60903801 187.24145508 110.97412109 C185.39982249 108.96281794 183.64543693 106.90326813 181.89379883 104.81396484 C177.5714417 99.85273737 172.64832912 95.52954488 167.75708008 91.14501953 C165.30963199 88.94570693 162.88520391 86.72121421 160.45629883 84.50146484 C156.75062007 81.1350757 153.01225801 77.81288131 149.23364258 74.52880859 C146.00228405 71.69592202 142.82161802 68.80702618 139.63208008 65.92724609 C137.56927095 64.07702921 135.48917513 62.25201676 133.39379883 60.43896484 C131.99565637 59.21242538 130.60013846 57.98289185 129.20629883 56.75146484 C127.73870117 55.45982422 127.73870117 55.45982422 126.24145508 54.14208984 C120.2850662 48.82086943 114.72501677 43.31503703 109.51879883 37.25146484 C109.01380859 36.66421631 108.50881836 36.07696777 107.98852539 35.47192383 C105.65079126 32.68892616 103.72768671 30.04905434 102.20629883 26.75146484 C101.21629883 25.76146484 101.21629883 25.76146484 100.20629883 24.75146484 C98.87448767 21.15557471 99.17983707 17.53990695 99.20629883 13.75146484 C99.86525146 13.83710693 100.5242041 13.92274902 101.203125 14.01098633 C126.43784391 17.72482338 126.43784391 17.72482338 151.83129883 17.25146484 C153.2895985 17.08450388 154.74793201 16.91783824 156.20629883 16.75146484 C156.98102539 16.64833984 157.75575195 16.54521484 158.55395508 16.43896484 C164.28278136 15.97989362 164.28278136 15.97989362 167.03442383 18.27880859 C168.64379883 20.18896484 168.64379883 20.18896484 170.01489258 22.12255859 C171.12546893 23.90184786 171.12546893 23.90184786 173.20629883 24.75146484 C173.20629883 25.41146484 173.20629883 26.07146484 173.20629883 26.75146484 C173.86629883 26.75146484 174.52629883 26.75146484 175.20629883 26.75146484 C176.37211631 27.86320916 177.52907126 28.98541322 178.64526367 30.14697266 C181.82714612 33.41743425 185.19647923 36.49991958 188.51879883 39.62646484 C189.2400293 40.30837891 189.96125977 40.99029297 190.7043457 41.69287109 C196.32687877 46.98763317 202.0996303 52.08167157 207.95629883 57.11474609 C208.69879883 57.75798828 209.44129883 58.40123047 210.20629883 59.06396484 C210.96942383 59.72009766 211.73254883 60.37623047 212.51879883 61.05224609 C214.20629883 62.75146484 214.20629883 62.75146484 214.20629883 64.75146484 C215.52629883 65.41146484 216.84629883 66.07146484 218.20629883 66.75146484 C218.20629883 67.41146484 218.20629883 68.07146484 218.20629883 68.75146484 C218.86629883 68.75146484 219.52629883 68.75146484 220.20629883 68.75146484 C221.54614258 70.04443359 221.54614258 70.04443359 223.14379883 71.93896484 C224.07579102 73.03724609 224.07579102 73.03724609 225.02661133 74.15771484 C225.7459082 75.01365234 226.46520508 75.86958984 227.20629883 76.75146484 C228.0493457 77.73115234 228.89239258 78.71083984 229.76098633 79.72021484 C244.20969019 96.53942945 256.89877829 114.07831788 267.20629883 133.75146484 C267.5337207 134.37214844 267.86114258 134.99283203 268.19848633 135.63232422 C291.71605099 180.90866132 293.97027766 234.16203229 278.97973633 282.37109375 C269.26137259 312.28083064 251.84712779 337.31355194 230.20629883 359.75146484 C228.96493164 361.05470703 228.96493164 361.05470703 227.69848633 362.38427734 C206.58359144 384.10461725 179.25857078 399.87958812 151.20629883 410.75146484 C150.55564453 411.00476563 149.90499023 411.25806641 149.23461914 411.51904297 C132.80325857 417.77097528 114.69347319 422.00501552 97.20629883 423.75146484 C95.7619043 423.91582031 95.7619043 423.91582031 94.28833008 424.08349609 C79.47416923 425.52083382 63.99596419 425.53258583 49.20629883 423.75146484 C48.87629883 424.41146484 48.54629883 425.07146484 48.20629883 425.75146484 C47.87629883 425.09146484 47.54629883 424.43146484 47.20629883 423.75146484 C45.19779344 423.20747854 45.19779344 423.20747854 42.73754883 422.92724609 C41.78654297 422.78963867 40.83553711 422.65203125 39.85571289 422.51025391 C38.81640625 422.36297852 37.77709961 422.21570313 36.70629883 422.06396484 C0.55468292 416.44955048 -39.23318661 401.96518776 -67.03979492 377.25537109 C-69.51719268 375.13109908 -72.14900319 373.23988975 -74.80151367 371.34130859 C-77.33155457 369.32223674 -79.52762635 367.06203962 -81.79370117 364.75146484 C-82.64448242 363.92388672 -83.49526367 363.09630859 -84.37182617 362.24365234 C-90.65880986 356.08534961 -96.34510154 349.67819943 -101.79370117 342.75146484 C-102.53749023 341.86201172 -103.2812793 340.97255859 -104.04760742 340.05615234 C-105.79370117 337.75146484 -105.79370117 337.75146484 -105.79370117 335.75146484 C-106.45370117 335.75146484 -107.11370117 335.75146484 -107.79370117 335.75146484 C-108.90356445 334.3371582 -108.90356445 334.3371582 -110.11401367 332.34130859 C-110.56284912 331.60678467 -111.01168457 330.87226074 -111.47412109 330.11547852 C-111.95083252 329.314729 -112.42754395 328.51397949 -112.91870117 327.68896484 C-113.41152588 326.8669458 -113.90435059 326.04492676 -114.41210938 325.19799805 C-115.88524062 322.72299395 -117.34243844 320.23934381 -118.79370117 317.75146484 C-119.17929199 317.09597656 -119.56488281 316.44048828 -119.9621582 315.76513672 C-145.203963 272.41330153 -149.1520245 219.68732627 -136.79370117 171.75146484 C-127.93157414 138.68195784 -110.85057382 108.19193797 -88.31152344 82.54052734 C-87.18715613 81.21523161 -86.09611219 79.86150721 -85.02392578 78.49365234 C-78.55017827 70.28686627 -71.29814309 62.98482955 -63.88232422 55.63427734 C-61.72651245 53.49681603 -59.57890495 51.35136637 -57.43237305 49.20458984 C-56.04156877 47.81869958 -54.65030832 46.43326693 -53.25854492 45.04833984 C-52.31288918 44.10435333 -52.31288918 44.10435333 -51.34812927 43.14129639 C-47.55033051 39.38315225 -43.63020985 35.82291365 -39.58930969 32.32815552 C-37.41887963 30.42234097 -35.37841358 28.4185579 -33.36401367 26.34912109 C-32.63182617 25.6046875 -31.89963867 24.86025391 -31.14526367 24.09326172 C-29.63577517 22.54802217 -28.12801584 21.00109191 -26.62182617 19.45263672 C-25.89737305 18.71722656 -25.17291992 17.98181641 -24.42651367 17.22412109 C-23.77569824 16.55646729 -23.12488281 15.88881348 -22.4543457 15.20092773 C-20.79370117 13.75146484 -20.79370117 13.75146484 -18.79370117 13.75146484 C-18.46370117 12.76146484 -18.13370117 11.77146484 -17.79370117 10.75146484 C-17.13370117 10.75146484 -16.47370117 10.75146484 -15.79370117 10.75146484 C-15.51421631 10.16985596 -15.23473145 9.58824707 -14.94677734 8.98901367 C-11.21498086 1.74744797 -8.39971652 -1.23331753 0 0 Z " fill="#29363A" transform="translate(439.793701171875,493.24853515625)"/>
<path d="M0 0 C1.93719378 -0.05406122 3.87481921 -0.09282025 5.8125 -0.125 C6.89144531 -0.14820313 7.97039062 -0.17140625 9.08203125 -0.1953125 C12 0 12 0 15 2 C17.04576827 2.56399014 17.04576827 2.56399014 19.33642578 2.91040039 C20.22103989 3.06173935 21.10565399 3.21307831 22.01707458 3.3690033 C23.46655235 3.60593651 23.46655235 3.60593651 24.9453125 3.84765625 C25.9617836 4.02007339 26.9782547 4.19249054 28.02552795 4.37013245 C30.23211823 4.74392188 32.43924131 5.11457634 34.64682007 5.48248291 C40.57836159 6.47161962 46.50585105 7.4844808 52.43359375 8.49609375 C53.6506752 8.70331055 54.86775665 8.91052734 56.12171936 9.12402344 C69.17857555 11.35564837 82.20176319 13.76205458 95.22305298 16.1913147 C106.05275887 18.21029386 116.88419735 20.17603118 127.7578125 21.9453125 C128.69923599 22.09984894 129.64065948 22.25438538 130.61061096 22.41360474 C135.02513513 23.13750554 139.44090055 23.84758288 143.86206055 24.52978516 C156.45840964 26.53830131 169.39186351 29.18326174 177.4609375 39.94921875 C182.97459225 48.31531339 184.15363615 56.12324703 182.5 65.98046875 C181.14258275 71.69550386 179.76524326 75.29369969 175 79 C174.45730469 79.48984375 173.91460938 79.9796875 173.35546875 80.484375 C164.4876902 88.02665402 155.08991143 89.25863546 143.85307884 88.38163376 C137.79137703 87.78124375 131.82293916 86.78288164 125.82543945 85.73095703 C124.4718793 85.49865582 123.11821791 85.2669438 121.76446533 85.0357666 C118.13339401 84.41386876 114.50384789 83.78347623 110.87458825 83.15110254 C107.05151648 82.48618793 103.22722868 81.82833401 99.40312195 81.16940308 C92.98820069 80.06291596 86.57425957 78.95088503 80.16088867 77.83544922 C72.77304823 76.55059797 65.38374098 75.27447252 57.99358398 74.0030185 C50.84546191 72.77300656 43.69840397 71.53691461 36.55180931 70.29806137 C33.52732201 69.77386988 30.50248974 69.25174105 27.47735023 68.73132706 C23.90999534 68.11734399 20.34361215 67.49798756 16.77787781 66.87466431 C14.86393524 66.54133929 12.9490966 66.21317197 11.03422546 65.88522339 C4.59626492 64.75394365 -1.6294944 63.38325492 -7.88311481 61.46972466 C-10.04058663 60.75764748 -10.04058663 60.75764748 -12 62 C-12 61.01 -12 60.02 -12 59 C-12.53625 58.7525 -13.0725 58.505 -13.625 58.25 C-14.40875 57.8375 -15.1925 57.425 -16 57 C-16.94875 56.54625 -17.8975 56.0925 -18.875 55.625 C-24.45958373 51.80247322 -27.22565304 44.41890034 -28.66796875 38.05078125 C-29.87058215 27.90638353 -27.19106059 20.10514116 -21 12 C-15.09200853 6.16845204 -8.4836993 2 0 2 C0 1.34 0 0.68 0 0 Z " fill="#2A373A" transform="translate(427,408)"/>
<path d="M0 0 C0.77340225 0.1274762 1.5468045 0.25495239 2.34364319 0.3862915 C4.80506498 0.79463341 7.26373209 1.21753223 9.72265625 1.640625 C11.33773692 1.90977809 12.95297065 2.17801444 14.56835938 2.4453125 C20.83474701 3.49038524 27.09573831 4.55283039 33.33251953 5.76367188 C34.05298965 5.9030719 34.77345978 6.04247192 35.51576233 6.18609619 C37.46813913 6.56767341 39.41883174 6.95783971 41.36938477 7.34863281 C44.73541776 7.98210399 44.73541776 7.98210399 47.98413086 7.84667969 C51.00842401 7.89412785 52.14270143 8.56010415 54.78515625 9.890625 C56.87950786 10.45092746 56.87950786 10.45092746 59.11499023 10.81689453 C59.97209091 10.97141083 60.82919159 11.12592712 61.71226501 11.28512573 C62.64253006 11.44626862 63.5727951 11.6074115 64.53125 11.7734375 C65.51416519 11.9486795 66.49708038 12.12392151 67.50978088 12.30447388 C69.6358349 12.68266004 71.76239858 13.05798973 73.8894043 13.43078613 C77.24586457 14.01969704 80.60060655 14.61764601 83.95507812 15.21777344 C94.1639929 17.03967375 104.37735078 18.83128066 114.60353088 20.55380249 C118.6944096 21.24394372 122.78340787 21.9448824 126.87234497 22.64642334 C129.72611271 23.13060739 132.58242816 23.59696929 135.43920898 24.06298828 C149.10625231 26.36210259 159.33291848 29.12657292 167.78515625 40.890625 C172.03627656 47.90202134 172.44289639 55.50485461 170.6328125 63.30859375 C167.62181767 72.48033375 161.77993557 79.19731489 153.6484375 84.20703125 C140.20131431 90.75936462 122.87707951 86.2109942 108.94921875 83.46875 C107.03920423 83.1051085 105.12884365 82.74328076 103.21817017 82.38311768 C100.19997889 81.81383204 97.18208068 81.24327061 94.165205 80.66704941 C83.60083122 78.65006302 73.01357485 76.76744722 62.42391205 74.88865662 C55.93772981 73.73535732 49.45426196 72.56690468 42.97034836 71.40093231 C37.45448776 70.40966713 31.93794804 69.42250385 26.41992188 68.44335938 C20.9404677 67.47084047 15.46296822 66.48793436 9.98665237 65.49790192 C7.93577157 65.12900578 5.88422489 64.76378948 3.83198166 64.40254974 C-16.41313059 60.83497838 -16.41313059 60.83497838 -24.21484375 56.890625 C-25.16359375 56.41625 -26.11234375 55.941875 -27.08984375 55.453125 C-29.6866702 53.54369379 -31.33046731 51.50443748 -33.21484375 48.890625 C-33.91609375 47.92125 -34.61734375 46.951875 -35.33984375 45.953125 C-39.62458314 38.95471732 -40.24199786 31.92606068 -39.21484375 23.890625 C-36.3054355 15.23487662 -31.59062038 7.93186938 -23.5703125 3.39453125 C-15.51811394 -0.49387653 -8.85510368 -1.55535547 0 0 Z " fill="#2A373A" transform="translate(448.21484375,336.109375)"/>
<path d="M0 0 C4.96036989 4.26822525 9.6346522 9.4796977 11 16 C11.12335111 18.90761727 11.19542029 21.79357213 11.22119141 24.70214844 C11.2326973 25.58101715 11.24420319 26.45988586 11.25605774 27.36538696 C11.2928074 30.28001413 11.32245871 33.19466213 11.3515625 36.109375 C11.37471355 38.15366886 11.39810411 40.19796002 11.42172241 42.24224854 C11.47023515 46.54298171 11.51511941 50.84373459 11.55761719 55.14453125 C11.61176213 60.58574661 11.67575981 66.02679125 11.74279213 71.46786118 C11.79362735 75.70306021 11.83842564 79.93830853 11.88163376 84.17359161 C11.90283347 86.17452373 11.92590976 88.17543707 11.9510994 90.17632294 C12.13123373 104.81550557 11.73954906 119.3785716 11 134 C12.26832228 132.89735185 13.53561858 131.79352351 14.80249023 130.68920898 C15.86124611 129.76736061 15.86124611 129.76736061 16.94139099 128.82688904 C19.7494378 126.33491999 22.41939233 123.72718406 25.0625 121.0625 C25.54009766 120.58876953 26.01769531 120.11503906 26.50976562 119.62695312 C29.2350763 116.89436525 31.82553461 114.08214085 34.3515625 111.1640625 C38.19521221 106.73540646 42.20794006 102.49937563 46.3125 98.3125 C47.00794922 97.57966797 47.70339844 96.84683594 48.41992188 96.09179688 C54.93636722 89.46783914 62.33531917 84.48527587 71.84765625 83.93359375 C79.7903332 84.17864912 86.31789956 87.42640939 91.98828125 92.9296875 C97.13204964 98.57398822 99.48446289 103.26694342 100 111 C99.00809032 123.03517077 90.37331377 131.11992463 82.21508789 139.17602539 C80.68988816 140.68513703 79.18140816 142.20963688 77.67382812 143.73632812 C62.41751515 159.02567759 62.41751515 159.02567759 51.46484375 159.359375 C39.65823188 159.26847333 28.10741754 156.50266684 16.5625 154.25 C13.05535251 153.57766921 9.5475339 152.90897533 6.03939819 152.24182129 C3.73149147 151.80077531 1.42452854 151.3547605 -0.88143921 150.90368652 C-6.43119327 149.82548657 -11.97038006 148.82983373 -17.56689453 148.02539062 C-18.60596451 147.86931335 -19.64503448 147.71323608 -20.71559143 147.5524292 C-22.64754754 147.26777911 -24.58294964 147.00516296 -26.52159119 146.77032471 C-33.2382277 145.76011233 -37.57433005 143.2109039 -42 138 C-42.94137255 135.17588235 -43.11725382 133.47081968 -43.09765625 130.55078125 C-43.09282227 129.27944336 -43.09282227 129.27944336 -43.08789062 127.98242188 C-43.07951172 127.10134766 -43.07113281 126.22027344 -43.0625 125.3125 C-43.05798828 124.41982422 -43.05347656 123.52714844 -43.04882812 122.60742188 C-43.03704983 120.40488013 -43.02060164 118.20247401 -43 116 C-43.99 115.67 -44.98 115.34 -46 115 C-45.01 115 -44.02 115 -43 115 C-43.0721875 114.39414063 -43.144375 113.78828125 -43.21875 113.1640625 C-44.93049825 97.71077965 -44.93049825 97.71077965 -43 91 C-43.66 90.67 -44.32 90.34 -45 90 C-44.83701416 89.45936417 -44.67402832 88.91872833 -44.50610352 88.36170959 C-43.91067578 85.58317248 -43.88780307 83.05544815 -43.90234375 80.21264648 C-43.90564697 79.0472081 -43.9089502 77.88176971 -43.91235352 76.68101501 C-43.92065186 75.423741 -43.9289502 74.16646698 -43.9375 72.87109375 C-43.94328756 70.88412287 -43.94906915 68.89715195 -43.95451355 66.91018009 C-43.9676304 62.71872237 -43.98968239 58.52730234 -44.01037598 54.33587646 C-44.02704033 50.89669563 -44.04163695 47.45753484 -44.05102539 44.01832581 C-44.058489 41.442736 -44.07045345 38.86715396 -44.08764648 36.29161072 C-44.15685512 11.41121221 -44.15685512 11.41121221 -35 2 C-24.56195119 -6.17924554 -11.24556846 -7.48864088 0 0 Z " fill="#29373A" transform="translate(529,106)"/>
<path d="M0 0 C1.94540578 0.36809153 3.89106487 0.73484565 5.83691406 1.10058594 C7.47013611 1.40953796 7.47013611 1.40953796 9.13635254 1.72473145 C16.34774584 3.06826037 23.57345446 4.33241273 30.796875 5.609375 C33.27769296 6.0487413 35.75846706 6.48835473 38.2392416 6.92796612 C39.93796178 7.2289494 41.6367007 7.52982689 43.3354578 7.83060169 C48.60209777 8.76313787 53.86831153 9.69803959 59.13421345 10.63473415 C82.29508751 14.7604253 82.29508751 14.7604253 105.48828125 18.69921875 C107.35825411 19.01185268 109.22820966 19.32459015 111.09814453 19.63745117 C114.29060824 20.17095082 117.48530894 20.68441184 120.68310547 21.18481445 C132.32534195 23.08042124 142.69080845 26.76670303 150.2421875 36.24609375 C156.00940059 44.69573154 156.61985036 53.47787462 154.7734375 63.40234375 C153.82262331 66.39430798 152.53905539 68.81349298 150.7734375 71.40234375 C150.31195312 72.08039063 149.85046875 72.7584375 149.375 73.45703125 C144.81656789 79.34963861 138.93404061 83.32269664 131.7734375 85.40234375 C122.41095052 86.14407547 113.4397144 84.53736353 104.2890625 82.796875 C102.77581882 82.51746669 101.2623904 82.23905737 99.74879456 81.96156311 C95.68237931 81.21345613 91.6184382 80.45265492 87.55487442 79.68923187 C83.29399294 78.890748 79.03112787 78.10301391 74.76831055 77.31494141 C73.02329749 76.99226302 71.27828713 76.66957006 69.53327942 76.34686279 C68.66207773 76.18576775 67.79087605 76.0246727 66.89327431 75.85869598 C64.22308946 75.3643751 61.55319388 74.86851582 58.88334656 74.37237549 C47.45145042 72.2504212 36.0107171 70.18464632 24.56020737 68.16561699 C22.0500308 67.72275262 19.54012159 67.278405 17.03030396 66.83351135 C16.2165864 66.68929843 15.40286884 66.54508551 14.56449318 66.39650249 C12.94489898 66.10945595 11.32530944 65.8223831 9.70572472 65.53528309 C5.77374448 64.83899763 1.84115836 64.14654552 -2.09289551 63.46206665 C-5.78157501 62.82014911 -9.46833655 62.16814563 -13.15394783 61.50884819 C-15.12885877 61.15840285 -17.10571426 60.81897033 -19.08262634 60.47999573 C-30.97602319 58.33741924 -41.35233602 55.35154575 -48.796875 45.27734375 C-53.42530941 38.08343427 -53.90558868 31.8998714 -53.2265625 23.40234375 C-51.34894739 15.30371472 -46.85824998 8.57351653 -39.984375 3.8671875 C-27.29734692 -3.45882367 -13.97811359 -2.75856442 0 0 Z " fill="#2A373A" transform="translate(470.2265625,264.59765625)"/>
<path d="M0 0 C0.66 0 1.32 0 2 0 C2.13201362 11.82429234 2.2624993 23.64860053 2.39115143 35.47292995 C2.45096591 40.96625518 2.51126359 46.45957412 2.57275391 51.95288086 C3.09501517 98.66807404 3.09501517 98.66807404 3 119 C3.99 119.33 4.98 119.66 6 120 C5.505 120.495 5.505 120.495 5 121 C3.35 121 1.7 121 0 121 C0 81.07 0 41.14 0 0 Z " fill="#151818" transform="translate(538,122)"/>
<path d="M0 0 C0.66 0.66 1.32 1.32 2 2 C-0.70600179 2.46750031 -3.41321403 2.91843002 -6.125 3.3515625 C-8.81152841 3.8011227 -11.45905691 4.29164078 -14.125 4.8359375 C-30.06899264 7.87469932 -45.88686818 6.85730509 -62 6 C-62 5.67 -62 5.34 -62 5 C-60.90051025 4.97812622 -60.90051025 4.97812622 -59.77880859 4.95581055 C-41.32038963 4.54840667 -22.88104284 3.90557999 -4.91674805 -0.71508789 C-3 -1 -3 -1 0 0 Z " fill="#3E4442" transform="translate(560,859)"/>
<path d="M0 0 C12.21 0 24.42 0 37 0 C37 0.33 37 0.66 37 1 C24.625 1.495 24.625 1.495 12 2 C18.27 2.33 24.54 2.66 31 3 C31 3.33 31 3.66 31 4 C6.01734161 4.20638953 6.01734161 4.20638953 -4 3 C-4.33 3.66 -4.66 4.32 -5 5 C-5.33 4.01 -5.66 3.02 -6 2 C-4.02 1.67 -2.04 1.34 0 1 C0 0.67 0 0.34 0 0 Z " fill="#515C5B" transform="translate(493,914)"/>
<path d="M0 0 C1.32 0.66 2.64 1.32 4 2 C3.319375 2.495 2.63875 2.99 1.9375 3.5 C-3.51148536 8.13743435 -8.38359972 12.81599875 -10 20 C-10.33 20 -10.66 20 -11 20 C-10.979375 19.05125 -10.95875 18.1025 -10.9375 17.125 C-10.77448174 14.09333717 -10.77448174 14.09333717 -12 12 C-8.49777237 6.88327027 -5.41372419 3.09355668 0 0 Z " fill="#303A3B" transform="translate(500,104)"/>
<path d="M0 0 C4.12153351 3.53006059 6.16571312 7.73876064 8.5625 12.5 C9.33137538 14.01207879 10.10341929 15.52255136 10.87890625 17.03125 C11.23871582 17.7325 11.59852539 18.43375 11.96923828 19.15625 C13.01734276 21.15231475 13.01734276 21.15231475 14.83984375 23.28125 C16 25 16 25 15.6875 27.25 C15.460625 27.8275 15.23375 28.405 15 29 C2.03884462 9.1748008 2.03884462 9.1748008 0 0 Z " fill="#292E2D" transform="translate(358,769)"/>
<path d="M0 0 C1.95949088 3.91898175 2.85224206 7.43708442 3.625 11.6875 C3.82283081 12.75291016 3.82283081 12.75291016 4.0246582 13.83984375 C4.92867268 18.9635664 5.27909346 23.79025548 5 29 C2.39665076 26.28817788 2.00543309 25.10866187 1.8125 21.25 C1.874375 20.1775 1.93625 19.105 2 18 C1.34 18 0.68 18 0 18 C0 12.06 0 6.12 0 0 Z " fill="#39413E" transform="translate(722,670)"/>
<path d="M0 0 C2.49650574 2.49205564 4.98827777 4.98811057 7.46484375 7.5 C11.8175586 11.90084914 16.13978744 16.16299009 21 20 C20.01 20.33 19.02 20.66 18 21 C15.93302978 19.12973998 13.87145703 17.25404816 11.8125 15.375 C11.23435547 14.85292969 10.65621094 14.33085938 10.06054688 13.79296875 C6.36918743 10.41443638 2.99120456 7.02207167 0 3 C0 2.01 0 1.02 0 0 Z " fill="#2F3432" transform="translate(551,529)"/>
<path d="M0 0 C0.33 0 0.66 0 1 0 C1.76756836 3.40946702 2.12818327 6.56226092 2.1328125 10.0546875 C2.13410156 10.99957031 2.13539063 11.94445312 2.13671875 12.91796875 C2.13285156 13.89378906 2.12898437 14.86960937 2.125 15.875 C2.12886719 16.84308594 2.13273438 17.81117188 2.13671875 18.80859375 C2.12968162 23.9808817 1.89431458 28.90382644 1 34 C0.67 34 0.34 34 0 34 C-1.37448837 22.60231949 -0.71442552 11.42270824 0 0 Z " fill="#0D1110" transform="translate(675,698)"/>
<path d="M0 0 C9.11689851 0.72356337 18.01638277 2.34292907 27 4 C23.3125 6.9609375 23.3125 6.9609375 20.5 7.3125 C18 7 18 7 16.19140625 6.0390625 C12.79957243 4.43081331 9.25077613 4.17616003 5.55859375 3.66015625 C2.79795644 2.94786968 1.76745375 2.18402535 0 0 Z " fill="#383F3D" transform="translate(488,419)"/>
<path d="M0 0 C0.33 0 0.66 0 1 0 C1 2.97 1 5.94 1 9 C1.66 9 2.32 9 3 9 C3.67031719 10.9570868 4.33614683 12.91571113 5 14.875 C5.37125 15.96554687 5.7425 17.05609375 6.125 18.1796875 C7 21 7 21 7 23 C4.03970995 21.97921033 3.06191763 21.09883007 1.375 18.40625 C-0.19360491 14.52038784 -0.34281611 11.23490326 -0.1875 7.125 C-0.17396484 6.43664062 -0.16042969 5.74828125 -0.14648438 5.0390625 C-0.1114837 3.35902999 -0.05768954 1.6794065 0 0 Z " fill="#192121" transform="translate(418,289)"/>
<path d="M0 0 C7.94957992 -0.22428282 15.27111181 0.04596958 23 2 C21 4 21 4 18.609375 4.23046875 C13.64463479 4.155862 8.87674129 4.05443055 4 3 C4 2.34 4 1.68 4 1 C2.68 0.67 1.36 0.34 0 0 Z " fill="#283131" transform="translate(468,401)"/>
<path d="M0 0 C7.93396732 -0.24923458 15.2441657 0.29005228 23 2 C23 2.66 23 3.32 23 4 C24.65 4 26.3 4 28 4 C28 4.33 28 4.66 28 5 C18.40558492 4.53079589 9.3583379 3.05805771 0 1 C0 0.67 0 0.34 0 0 Z " fill="#232827" transform="translate(494,271)"/>
<path d="M0 0 C0 3.23783778 -0.34651434 3.892226 -2.08203125 6.46875 C-2.51966797 7.12230469 -2.95730469 7.77585937 -3.40820312 8.44921875 C-3.87162109 9.12597656 -4.33503906 9.80273438 -4.8125 10.5 C-5.26431641 11.17675781 -5.71613281 11.85351562 -6.18164062 12.55078125 C-8.27188225 15.64494915 -10.28910463 18.4136021 -13 21 C-12.57393835 15.33946666 -10.35789994 12.08290721 -7.0625 7.6875 C-6.60681641 7.05521484 -6.15113281 6.42292969 -5.68164062 5.77148438 C-2.29762785 1.14881393 -2.29762785 1.14881393 0 0 Z " fill="#2D312F" transform="translate(340,592)"/>
<path d="M0 0 C0.495 1.485 0.495 1.485 1 3 C0.40832031 2.98839844 -0.18335938 2.97679687 -0.79296875 2.96484375 C-1.58316406 2.95582031 -2.37335937 2.94679688 -3.1875 2.9375 C-4.35345703 2.92009766 -4.35345703 2.92009766 -5.54296875 2.90234375 C-7.99920142 2.93059839 -7.99920142 2.93059839 -10.34960938 3.5 C-12.93136131 3.98705121 -15.24100913 4.11457413 -17.86328125 4.09765625 C-19.19262695 4.09282227 -19.19262695 4.09282227 -20.54882812 4.08789062 C-21.46083984 4.07951172 -22.37285156 4.07113281 -23.3125 4.0625 C-24.24384766 4.05798828 -25.17519531 4.05347656 -26.13476562 4.04882812 C-28.42324373 4.03709234 -30.71158808 4.02067363 -33 4 C-33 3.67 -33 3.34 -33 3 C-31.9378125 2.95101562 -30.875625 2.90203125 -29.78125 2.8515625 C-21.0784978 2.55271194 -21.0784978 2.55271194 -12.5625 0.9375 C-8.27798624 -0.19000362 -4.39816869 -0.18325703 0 0 Z " fill="#191C1B" transform="translate(605,510)"/>
<path d="M0 0 C9.46992897 0.5931489 18.68822938 2.26427722 28 4 C28 4.33 28 4.66 28 5 C18.6276772 5.45595084 8.04799008 5.36532672 0 0 Z " fill="#232826" transform="translate(499,482)"/>
<path d="M0 0 C4.9549593 1.16587278 7.02717993 4.16143168 9.9609375 8.02734375 C10.30382812 8.67832031 10.64671875 9.32929688 11 10 C10.67 10.99 10.34 11.98 10 13 C6.9354162 12.38708324 5.35140572 11.5024152 3.5546875 8.93359375 C0 2.60625 0 2.60625 0 0 Z " fill="#343C3C" transform="translate(400,450)"/>
<path d="M0 0 C6.36461461 5.59314617 11.08369093 13.0699379 14 21 C10.63570685 19.87856895 10.33806775 19.41715792 8.5546875 16.54296875 C8.11769531 15.84236328 7.68070313 15.14175781 7.23046875 14.41992188 C6.78316406 13.68322266 6.33585938 12.94652344 5.875 12.1875 C5.19244141 11.09985352 5.19244141 11.09985352 4.49609375 9.99023438 C2.44306877 6.66092235 0.79910853 3.86414563 0 0 Z " fill="#282D2B" transform="translate(642,619)"/>
<path d="M0 0 C1.65 0.33 3.3 0.66 5 1 C3.38405168 3.04119788 1.7143618 5.04072937 0 7 C-0.66 7 -1.32 7 -2 7 C-2 7.66 -2 8.32 -2 9 C-3.98 9.99 -3.98 9.99 -6 11 C-6.33 9.68 -6.66 8.36 -7 7 C-6.360625 6.731875 -5.72125 6.46375 -5.0625 6.1875 C-2.66868314 5.11332248 -2.66868314 5.11332248 -2 2 C-1.34 2 -0.68 2 0 2 C0 1.34 0 0.68 0 0 Z " fill="#323C3D" transform="translate(424,502)"/>
<path d="M0 0 C0.33 0 0.66 0 1 0 C1 1.65 1 3.3 1 5 C1.66 5 2.32 5 3 5 C3.33 4.34 3.66 3.68 4 3 C3.40546697 15.66970387 3.40546697 15.66970387 0 21 C-1.38682245 17.14771542 -0.57893208 13.98819876 0 10 C0.08764287 6.66470176 0.06040405 3.33564584 0 0 Z " fill="#353C3B" transform="translate(622,313)"/>
<path d="M0 0 C0.33 0 0.66 0 1 0 C0.34 8.25 -0.32 16.5 -1 25 C-3.00957487 20.98085027 -3.24763013 19.39733584 -3.1875 15.0625 C-3.18105469 14.04285156 -3.17460937 13.02320313 -3.16796875 11.97265625 C-3.01221966 9.21625952 -2.61837386 6.68621605 -2 4 C-1.34 4 -0.68 4 0 4 C0 2.68 0 1.36 0 0 Z " fill="#393F3D" transform="translate(351,683)"/>
<path d="M0 0 C5.48433159 8.22649738 4.13546849 19.62471285 3 29 C2.67 29 2.34 29 2 29 C2 24.38 2 19.76 2 15 C1.34 14.67 0.68 14.34 0 14 C0 9.38 0 4.76 0 0 Z " fill="#3A3F3D" transform="translate(672,682)"/>
<path d="M0 0 C0.99 0.33 1.98 0.66 3 1 C-1.95 5.95 -6.9 10.9 -12 16 C-12.33 15.01 -12.66 14.02 -13 13 C-8.71 8.71 -4.42 4.42 0 0 Z " fill="#2B2F2E" transform="translate(374,551)"/>
<path d="M0 0 C5.6131052 1.36075278 8.61031425 5.62621194 12 10 C13.35439668 12.70879335 13.06501451 15.00933268 13 18 C11.87032213 16.3054832 10.75105014 14.60357838 9.66796875 12.87890625 C6.82880555 8.43662716 4.29594879 5.15878587 0 2 C0 1.34 0 0.68 0 0 Z " fill="#272E2D" transform="translate(604,367)"/>
<path d="M0 0 C0.99 0.33 1.98 0.66 3 1 C1.60652624 4.15204981 -0.02485079 6.26171773 -2.4765625 8.671875 C-3.48203125 9.66767578 -3.48203125 9.66767578 -4.5078125 10.68359375 C-5.20648438 11.36550781 -5.90515625 12.04742188 -6.625 12.75 C-7.33140625 13.44738281 -8.0378125 14.14476562 -8.765625 14.86328125 C-10.50598703 16.58012488 -12.25084981 18.29211832 -14 20 C-14 17 -14 17 -12.80664062 15.51367188 C-11.98969727 14.74893555 -11.98969727 14.74893555 -11.15625 13.96875 C-10.56972656 13.40542969 -9.98320312 12.84210937 -9.37890625 12.26171875 C-8.12630208 11.08723958 -6.87369792 9.91276042 -5.62109375 8.73828125 C-4.74130859 7.89330078 -4.74130859 7.89330078 -3.84375 7.03125 C-3.29912109 6.52142578 -2.75449219 6.01160156 -2.19335938 5.48632812 C-0.68696569 3.92780201 -0.68696569 3.92780201 -1 1 C-0.67 0.67 -0.34 0.34 0 0 Z " fill="#313E41" transform="translate(377,548)"/>
<path d="M0 0 C-3.46735947 3.03393954 -7.52949826 4.9351577 -12 6 C-12.99 5.67 -13.98 5.34 -15 5 C-14.34 4.67 -13.68 4.34 -13 4 C-13.33 3.34 -13.66 2.68 -14 2 C-8.79666866 -0.24281523 -5.65735415 -1.55577239 0 0 Z " fill="#343E3E" transform="translate(584,852)"/>
<path d="M0 0 C12.71484375 0.90820312 12.71484375 0.90820312 25.4296875 1.81640625 C26.70199219 1.90728516 26.70199219 1.90728516 28 2 C28 2.33 28 2.66 28 3 C24.27089934 3.0582462 20.54191636 3.09367917 16.8125 3.125 C15.75740234 3.14175781 14.70230469 3.15851562 13.61523438 3.17578125 C12.08286133 3.18544922 12.08286133 3.18544922 10.51953125 3.1953125 C9.11344604 3.21102295 9.11344604 3.21102295 7.67895508 3.22705078 C4.78369188 2.98166713 2.62937303 2.20521619 0 1 C0 0.67 0 0.34 0 0 Z " fill="#191D1D" transform="translate(474,913)"/>
<path d="M0 0 C5.07494433 0.5638827 7.57479418 4.42735909 10.8125 8 C12.28497775 10.47996253 12.23631935 12.16416781 12 15 C10.66666667 13.33333333 9.33333333 11.66666667 8 10 C6.88625 8.6696875 6.88625 8.6696875 5.75 7.3125 C4 5 4 5 4 3 C2.68 2.34 1.36 1.68 0 1 C0 0.67 0 0.34 0 0 Z " fill="#2C3130" transform="translate(595,442)"/>
<path d="M0 0 C2.87139937 2.31564465 3.92044217 3.69881677 4.875 7.3125 C5.01145934 11.33805047 4.42708173 14.24452177 3 18 C2.34 18.33 1.68 18.66 1 19 C1.01740234 17.57107422 1.01740234 17.57107422 1.03515625 16.11328125 C1.04417969 14.85902344 1.05320312 13.60476562 1.0625 12.3125 C1.07410156 11.07113281 1.08570313 9.82976562 1.09765625 8.55078125 C1.01478673 5.53764546 0.70839449 2.91724661 0 0 Z " fill="#252927" transform="translate(624,206)"/>
<path d="M0 0 C0.66 0.33 1.32 0.66 2 1 C1.360625 1.763125 0.72125 2.52625 0.0625 3.3125 C-2.14232781 5.88246713 -2.14232781 5.88246713 -3 9 C-7.33333333 13.66666667 -7.33333333 13.66666667 -10 15 C-9.53234153 10.2809009 -7.65065406 8.08167683 -4.4375 4.6875 C-3.61121094 3.80449219 -2.78492188 2.92148437 -1.93359375 2.01171875 C-1.29550781 1.34785156 -0.65742188 0.68398438 0 0 Z " fill="#272C2A" transform="translate(354,573)"/>
<path d="M0 0 C7.09406894 0.58476056 14.01563899 1.63233995 21 3 C21 3.33 21 3.66 21 4 C8.08651399 4.38167939 8.08651399 4.38167939 2 2 C1.34 1.34 0.68 0.68 0 0 Z " fill="#252A29" transform="translate(448,473)"/>
<path d="M0 0 C0.33 0.66 0.66 1.32 1 2 C0.34 2 -0.32 2 -1 2 C-1 2.66 -1 3.32 -1 4 C-2.875 6.125 -2.875 6.125 -5 8 C-5.66 8 -6.32 8 -7 8 C-7.268125 8.61875 -7.53625 9.2375 -7.8125 9.875 C-9 12 -9 12 -12 14 C-11.42164069 10.17056034 -9.68633869 8.15061338 -7.125 5.3125 C-6.42632813 4.52488281 -5.72765625 3.73726562 -5.0078125 2.92578125 C-3 1 -3 1 0 0 Z " fill="#2E3432" transform="translate(569,213)"/>
<path d="M0 0 C15.69357758 -0.28418953 15.69357758 -0.28418953 21 4 C13.80729161 3.53752467 6.9969173 2.74922933 0 1 C0 0.67 0 0.34 0 0 Z " fill="#202424" transform="translate(531,353)"/>
<path d="M0 0 C7.19270839 0.46247533 14.0030827 1.25077067 21 3 C21 3.33 21 3.66 21 4 C13.20745184 4.25364533 6.68393723 4.45595815 0 0 Z " fill="#222726" transform="translate(525,336)"/>
<path d="M0 0 C0.47308594 0.33773437 0.94617188 0.67546875 1.43359375 1.0234375 C6.48779448 4.43231362 10.98870682 6.06769296 17 7 C17 7.33 17 7.66 17 8 C6.25484718 8.86037701 6.25484718 8.86037701 2.3125 5.6875 C0 3 0 3 0 0 Z " fill="#252B29" transform="translate(489,243)"/>
<path d="M0 0 C0.66 0.33 1.32 0.66 2 1 C2.625 3.0625 2.625 3.0625 3 5 C1.39402675 4.54803755 -0.20972508 4.08817673 -1.8125 3.625 C-2.70582031 3.36976563 -3.59914063 3.11453125 -4.51953125 2.8515625 C-7 2 -7 2 -10 0 C-6.27762318 -1.24079227 -3.82468076 -0.6953965 0 0 Z " fill="#384140" transform="translate(437,901)"/>
<path d="M0 0 C0.66 0.33 1.32 0.66 2 1 C1.67 1.66 1.34 2.32 1 3 C0.34 3 -0.32 3 -1 3 C-1.33 3.99 -1.66 4.98 -2 6 C-5.0625 7.1875 -5.0625 7.1875 -8 8 C-8 7.34 -8 6.68 -8 6 C-8.66 5.67 -9.32 5.34 -10 5 C-8.38007835 4.13624104 -6.75388139 3.28424146 -5.125 2.4375 C-4.22007812 1.96183594 -3.31515625 1.48617187 -2.3828125 0.99609375 C-1.20332031 0.50302734 -1.20332031 0.50302734 0 0 Z " fill="#394140" transform="translate(593,844)"/>
<path d="M0 0 C0.99791503 3.10462452 1.13846433 4.93490372 0 8 C-1.2651389 10.38113541 -2.61825308 12.68223097 -4 15 C-5 13 -5 13 -5 10 C-3.7584398 6.37082402 -2.03767 3.24174772 0 0 Z " fill="#343D3D" transform="translate(326,611)"/>
<path d="M0 0 C0 0.99 0 1.98 0 3 C-0.66 3.66 -1.32 4.32 -2 5 C-2 5.99 -2 6.98 -2 8 C-3.82193842 9.9249647 -5.89235283 11.37535531 -8 13 C-8.77734375 11.296875 -8.77734375 11.296875 -9 9 C-7.12890625 6.640625 -7.12890625 6.640625 -4.5625 4.25 C-3.71816406 3.45078125 -2.87382812 2.6515625 -2.00390625 1.828125 C-1.34261719 1.22484375 -0.68132812 0.6215625 0 0 Z " fill="#414A49" transform="translate(416,510)"/>
<path d="M0 0 C4.21878192 -0.19622241 7.17010894 0.19769832 11 2 C11 3.32 11 4.64 11 6 C10.21625 5.814375 9.4325 5.62875 8.625 5.4375 C6.02910225 4.74037734 6.02910225 4.74037734 4 6 C4 5.01 4 4.02 4 3 C2.68 2.34 1.36 1.68 0 1 C0 0.67 0 0.34 0 0 Z " fill="#38403E" transform="translate(411,464)"/>
<path d="M0 0 C5.94 0 11.88 0 18 0 C17.01 1.485 17.01 1.485 16 3 C12.8125 3.3984375 12.8125 3.3984375 9 3.375 C7.741875 3.38273437 6.48375 3.39046875 5.1875 3.3984375 C4.135625 3.26695312 3.08375 3.13546875 2 3 C1.34 2.01 0.68 1.02 0 0 Z " fill="#2C2F2D" transform="translate(570,262)"/>
<path d="M0 0 C2.70583756 0.25560029 5.37210774 0.56759978 8.0625 0.9375 C9.20041992 1.08735352 9.20041992 1.08735352 10.36132812 1.24023438 C12.24154246 1.48856457 14.12086128 1.74365751 16 2 C16 2.33 16 2.66 16 3 C14.5209084 3.16733157 13.04172444 3.33384686 11.5625 3.5 C10.32693359 3.63921875 10.32693359 3.63921875 9.06640625 3.78125 C6.95666316 4.00458764 5.28054812 3.98435974 3.125 3.9375 C-0.0327362 3.84580392 -0.0327362 3.84580392 -3 5 C-1.125 1.125 -1.125 1.125 0 0 Z " fill="#444B49" transform="translate(432,493)"/>
<path d="M0 0 C1.485 0.99 1.485 0.99 3 2 C3.3984375 4.49609375 3.3984375 4.49609375 3.375 7.4375 C3.38273438 8.40558594 3.39046875 9.37367188 3.3984375 10.37109375 C3 13 3 13 0 16 C0 10.72 0 5.44 0 0 Z " fill="#2D3230" transform="translate(607,458)"/>
<path d="M0 0 C5.06316683 -0.15639125 9.50398438 0.37233929 14.4375 1.5 C15.67371094 1.7784375 16.90992188 2.056875 18.18359375 2.34375 C19.57771484 2.66859375 19.57771484 2.66859375 21 3 C21 3.33 21 3.66 21 4 C15.55306686 4.09688221 10.36095333 4.12862175 5 3 C5 2.34 5 1.68 5 1 C3.35 1 1.7 1 0 1 C0 0.67 0 0.34 0 0 Z " fill="#1E2221" transform="translate(492,330)"/>
<path d="M0 0 C-3.36423277 2.96052484 -6.69159287 3.92289822 -11 5 C-11.33 4.01 -11.66 3.02 -12 2 C-7.52828892 -0.66173278 -5.06604612 -1.3268216 0 0 Z " fill="#353D3D" transform="translate(605,897)"/>
<path d="M0 0 C0.79921875 0.28746094 1.5984375 0.57492187 2.421875 0.87109375 C3.32679688 1.21333984 3.32679688 1.21333984 4.25 1.5625 C4.25 1.8925 4.25 2.2225 4.25 2.5625 C-1.47040011 3.3945582 -6.97240116 3.68286664 -12.75 3.5625 C-12.75 3.2325 -12.75 2.9025 -12.75 2.5625 C-10.77 2.5625 -8.79 2.5625 -6.75 2.5625 C-6.75 1.9025 -6.75 1.2425 -6.75 0.5625 C-7.41 0.2325 -8.07 -0.0975 -8.75 -0.4375 C-5.32056481 -1.62521723 -3.37215325 -1.23976223 0 0 Z " fill="#474F4F" transform="translate(540.75,913.4375)"/>
<path d="M0 0 C3.57814867 0.59635811 5.54422861 1.999934 8.25 4.375 C8.95640625 4.98085938 9.6628125 5.58671875 10.390625 6.2109375 C12 8 12 8 12 11 C7.81576108 7.49102731 3.80411834 3.91939465 0 0 Z " fill="#2B302E" transform="translate(622,530)"/>
<path d="M0 0 C2.97 0.33 5.94 0.66 9 1 C9 1.66 9 2.32 9 3 C7.02 3.33 5.04 3.66 3 4 C3 5.65 3 7.3 3 9 C2.67 8.34 2.34 7.68 2 7 C1.34 7 0.68 7 0 7 C0 4.69 0 2.38 0 0 Z " fill="#2F3430" transform="translate(539,507)"/>
<path d="M0 0 C-0.60328125 0.39832031 -1.2065625 0.79664063 -1.828125 1.20703125 C-2.62734375 1.73683594 -3.4265625 2.26664062 -4.25 2.8125 C-5.03890625 3.33457031 -5.8278125 3.85664063 -6.640625 4.39453125 C-8.81092481 5.87134122 -10.91413768 7.40689873 -13 9 C-12.7416116 5.51175659 -11.73533264 4.75785753 -9.0625 2.3125 C-4.29400387 -1.28820116 -4.29400387 -1.28820116 0 0 Z " fill="#242A29" transform="translate(430,340)"/>
<path d="M0 0 C0.99 0.33 1.98 0.66 3 1 C-0.49359465 4.59634744 -4.11098131 7.83451967 -8 11 C-7.43040847 7.37386801 -6.07625466 5.74482259 -3.4375 3.25 C-2.79683594 2.63640625 -2.15617188 2.0228125 -1.49609375 1.390625 C-1.00238281 0.93171875 -0.50867188 0.4728125 0 0 Z " fill="#2A302F" transform="translate(553,228)"/>
<path d="M0 0 C-4.455 2.97 -4.455 2.97 -9 6 C-9.66 5.67 -10.32 5.34 -11 5 C-9.60247786 2.34470793 -8.49183974 0.36491336 -6.0625 -1.4375 C-4 -2 -4 -2 0 0 Z " fill="#373F3E" transform="translate(634,882)"/>
<path d="M0 0 C0.33 0 0.66 0 1 0 C1.73030908 6.21324498 2.23180249 11.84098757 1 18 C0.34 18 -0.32 18 -1 18 C-1.33 18.99 -1.66 19.98 -2 21 C-1.01 10.605 -1.01 10.605 0 0 Z " fill="#424947" transform="translate(674,722)"/>
<path d="M0 0 C-1.39750048 3.15835107 -3.05198234 5.32272825 -5.5 7.75 C-6.41265625 8.67039062 -6.41265625 8.67039062 -7.34375 9.609375 C-9 11 -9 11 -11 11 C-9.60249952 7.84164893 -7.94801766 5.67727175 -5.5 3.25 C-4.8915625 2.63640625 -4.283125 2.0228125 -3.65625 1.390625 C-2 0 -2 0 0 0 Z " fill="#292E2C" transform="translate(411,584)"/>
<path d="M0 0 C4.21543758 1.50551342 5.86049125 4.17944866 8 8 C8 9.32 8 10.64 8 12 C7.34 12 6.68 12 6 12 C4 8 2 4 0 0 Z " fill="#2A2F2D" transform="translate(531,110)"/>
<path d="M0 0 C2.50719458 2.32649587 4.32183601 4.82681521 6.1875 7.6875 C6.71730469 8.49574219 7.24710937 9.30398438 7.79296875 10.13671875 C8.39044922 11.05904297 8.39044922 11.05904297 9 12 C8.67 12.66 8.34 13.32 8 14 C4.74063696 10.97344861 2.24411619 7.84705633 0 4 C0 2.68 0 1.36 0 0 Z " fill="#242826" transform="translate(325,814)"/>
<path d="M0 0 C1.258125 0.12375 2.51625 0.2475 3.8125 0.375 C4.87404297 0.47941406 4.87404297 0.47941406 5.95703125 0.5859375 C8 1 8 1 11 3 C10.67 3.66 10.34 4.32 10 5 C7.36 4.67 4.72 4.34 2 4 C2 3.34 2 2.68 2 2 C1.34 1.34 0.68 0.68 0 0 Z " fill="#3A4443" transform="translate(579,435)"/>
<path d="M0 0 C5.28 0.66 10.56 1.32 16 2 C13 5 13 5 10.3125 5.1875 C9.1678125 5.0946875 9.1678125 5.0946875 8 5 C8.33 4.01 8.66 3.02 9 2 C6.69 2.33 4.38 2.66 2 3 C1.34 2.01 0.68 1.02 0 0 Z " fill="#3E4847" transform="translate(549,355)"/>
<path d="M0 0 C5.94 0.99 5.94 0.99 12 2 C11.01 2.99 10.02 3.98 9 5 C5.4375 4.9375 5.4375 4.9375 2 4 C1.34 2.68 0.68 1.36 0 0 Z " fill="#3F4847" transform="translate(468,859)"/>
<path d="M0 0 C3.17162851 2.88329865 4.80025501 5.32214211 5.3125 9.625 C5.209375 10.40875 5.10625 11.1925 5 12 C4.01 12.66 3.02 13.32 2 14 C-0.29612756 4.58997722 -0.29612756 4.58997722 0 0 Z " fill="#3A4241" transform="translate(299,746)"/>
<path d="M0 0 C2.0839403 0.11443603 4.16716493 0.24195547 6.25 0.375 C7.41015625 0.44460938 8.5703125 0.51421875 9.765625 0.5859375 C12.70694334 0.96248308 14.49949011 1.4774123 17 3 C14.36 3 11.72 3 9 3 C9 3.33 9 3.66 9 4 C7.02 4 5.04 4 3 4 C3 3.01 3 2.02 3 1 C2.01 0.67 1.02 0.34 0 0 Z " fill="#49524F" transform="translate(585,286)"/>
<path d="M0 0 C0.33 0.99 0.66 1.98 1 3 C-0.07356677 4.15498897 -1.15929788 5.29867867 -2.25 6.4375 C-2.85328125 7.07558594 -3.4565625 7.71367187 -4.078125 8.37109375 C-6.10048016 10.08516306 -7.41270605 10.59358878 -10 11 C-6.79239749 7.19364503 -3.59253891 3.45436433 0 0 Z " fill="#353937" transform="translate(577,203)"/>
<path d="M0 0 C0.33 0 0.66 0 1 0 C1.74304413 4.75548243 -0.26756947 7.56068738 -2.7109375 11.42578125 C-3.13632812 11.94527344 -3.56171875 12.46476563 -4 13 C-4.66 13 -5.32 13 -6 13 C-4.31326082 8.50202887 -2.18326108 4.27113698 0 0 Z " fill="#282D2B" transform="translate(706,799)"/>
<path d="M0 0 C0.33 0 0.66 0 1 0 C1.20674944 5.78898419 0.59162079 10.42932723 -1 16 C-2.79570284 13.33874255 -3.03345719 12.21888938 -2.5390625 8.984375 C-2.23742187 7.91703125 -1.93578125 6.8496875 -1.625 5.75 C-1.32851563 4.67234375 -1.03203125 3.5946875 -0.7265625 2.484375 C-0.48679687 1.66453125 -0.24703125 0.8446875 0 0 Z " fill="#272B28" transform="translate(722,752)"/>
<path d="M0 0 C0.33 0 0.66 0 1 0 C1.99 4.95 2.98 9.9 4 15 C3.01 14.67 2.02 14.34 1 14 C-0.83462949 9.4695884 -1.51555572 4.69822274 0 0 Z " fill="#3A403D" transform="translate(352,744)"/>
<path d="M0 0 C2.58155616 3.87233424 3.12134154 5.53536019 3.0625 10.125 C3.05347656 11.03507813 3.04445313 11.94515625 3.03515625 12.8828125 C3.02355469 13.58148437 3.01195312 14.28015625 3 15 C-0.34944548 9.97583178 -0.09834146 5.90048743 0 0 Z " fill="#1E2222" transform="translate(349,734)"/>
<path d="M0 0 C2.31 0.66 4.62 1.32 7 2 C6.67 2.66 6.34 3.32 6 4 C7.32 4.99 8.64 5.98 10 7 C6.44219804 6.39009109 3.3171411 5.4216319 0 4 C0 2.68 0 1.36 0 0 Z " fill="#394444" transform="translate(438,849)"/>
<path d="M0 0 C0.33 0.66 0.66 1.32 1 2 C0.0625 4.125 0.0625 4.125 -1 6 C-1.66 6 -2.32 6 -3 6 C-3 7.65 -3 9.3 -3 11 C-3.99 10.34 -4.98 9.68 -6 9 C-4.25 3.25 -4.25 3.25 -2 1 C-1.34 0.67 -0.68 0.34 0 0 Z " fill="#333D3D" transform="translate(667,767)"/>
<path d="M0 0 C1 3 1 3 0.00390625 5.26171875 C-0.47175781 6.06222656 -0.94742187 6.86273437 -1.4375 7.6875 C-2.14712891 8.89986328 -2.14712891 8.89986328 -2.87109375 10.13671875 C-3.24363281 10.75160156 -3.61617188 11.36648438 -4 12 C-4.66 12 -5.32 12 -6 12 C-5.36934243 8.78147169 -4.21979305 6.49198931 -2.4375 3.75 C-1.98246094 3.04359375 -1.52742188 2.3371875 -1.05859375 1.609375 C-0.53458984 0.81273437 -0.53458984 0.81273437 0 0 Z " fill="#272C2A" transform="translate(374,626)"/>
<path d="M0 0 C1.47919922 0.19142578 1.47919922 0.19142578 2.98828125 0.38671875 C4.47908203 0.56654297 4.47908203 0.56654297 6 0.75 C6.75925781 0.85699219 7.51851563 0.96398437 8.30078125 1.07421875 C6.01901712 3.14806512 4.85754642 4.05819066 1.72265625 4.1484375 C0.40007812 3.95701172 0.40007812 3.95701172 -0.94921875 3.76171875 C-1.84125 3.64183594 -2.73328125 3.52195312 -3.65234375 3.3984375 C-4.3278125 3.29144531 -5.00328125 3.18445313 -5.69921875 3.07421875 C-3.85219692 0.62202936 -3.13798948 0.08628336 0 0 Z " fill="#424D4E" transform="translate(479.69921875,476.92578125)"/>
<path d="M0 0 C1.91595968 -0.08133791 3.83291932 -0.13934367 5.75 -0.1875 C7.35101562 -0.23970703 7.35101562 -0.23970703 8.984375 -0.29296875 C12.30027855 0.02917214 13.59016673 0.77148914 16 3 C14.27054347 2.85764543 12.54144346 2.71095618 10.8125 2.5625 C9.36810547 2.44068359 9.36810547 2.44068359 7.89453125 2.31640625 C5.21350398 2.02333849 2.6337014 1.57296246 0 1 C0 0.67 0 0.34 0 0 Z " fill="#1C2121" transform="translate(581,362)"/>
<path d="M0 0 C3.63 0 7.26 0 11 0 C11 0.66 11 1.32 11 2 C12.32 2.33 13.64 2.66 15 3 C9.5814234 3.22577402 5.22512279 2.46670113 0 1 C0 0.67 0 0.34 0 0 Z " fill="#1E2321" transform="translate(563,283)"/>
<path d="M0 0 C0 0.66 0 1.32 0 2 C1.32 2.33 2.64 2.66 4 3 C-1.69051363 2.4618629 -7.34865884 1.8599867 -13 1 C-13 0.67 -13 0.34 -13 0 C-8.37078475 -1.0161692 -4.65537393 -0.83796731 0 0 Z " fill="#414846" transform="translate(524,253)"/>
<path d="M0 0 C3.63 0 7.26 0 11 0 C11 0.66 11 1.32 11 2 C12.32 2.33 13.64 2.66 15 3 C13.06183265 2.8858134 11.12444901 2.75826577 9.1875 2.625 C8.10855469 2.55539062 7.02960937 2.48578125 5.91796875 2.4140625 C3 2 3 2 0 0 Z " fill="#1E2220" transform="translate(532,428)"/>
<path d="M0 0 C3.96 0 7.92 0 12 0 C12 0.66 12 1.32 12 2 C13.32 2.33 14.64 2.66 16 3 C14.27054347 2.85764543 12.54144346 2.71095618 10.8125 2.5625 C9.36810547 2.44068359 9.36810547 2.44068359 7.89453125 2.31640625 C5.21350398 2.02333849 2.6337014 1.57296246 0 1 C0 0.67 0 0.34 0 0 Z " fill="#1D2120" transform="translate(509,424)"/>
<path d="M0 0 C1.72945653 0.14235457 3.45855654 0.28904382 5.1875 0.4375 C6.63189453 0.55931641 6.63189453 0.55931641 8.10546875 0.68359375 C10.78649602 0.97666151 13.3662986 1.42703754 16 2 C16 2.33 16 2.66 16 3 C14.27119018 3.05449838 12.54187288 3.09301688 10.8125 3.125 C9.84957031 3.14820313 8.88664063 3.17140625 7.89453125 3.1953125 C4.87187222 2.9913544 2.73230015 2.26874632 0 1 C0 0.67 0 0.34 0 0 Z " fill="#151919" transform="translate(562,418)"/>
<path d="M0 0 C3.96 0 7.92 0 12 0 C12 0.66 12 1.32 12 2 C13.32 2.33 14.64 2.66 16 3 C14.27054347 2.85764543 12.54144346 2.71095618 10.8125 2.5625 C9.36810547 2.44068359 9.36810547 2.44068359 7.89453125 2.31640625 C5.21350398 2.02333849 2.6337014 1.57296246 0 1 C0 0.67 0 0.34 0 0 Z " fill="#454A47" transform="translate(517,411)"/>
<path d="M0 0 C2.93200474 2.85276137 5.64315404 5.65079784 8 9 C6.68 9.33 5.36 9.66 4 10 C1.80902348 6.6659053 0.56545837 3.95820859 0 0 Z " fill="#2B2F2E" transform="translate(414,380)"/>
<path d="M0 0 C5.0302076 0.52537724 10.01885239 1.10594786 15 2 C15 2.33 15 2.66 15 3 C5.92307692 4.38461538 5.92307692 4.38461538 2 3 C1.34 2.01 0.68 1.02 0 0 Z " fill="#444C49" transform="translate(506,347)"/>
<path d="M0 0 C1.7492214 -0.08142927 3.49954542 -0.13938541 5.25 -0.1875 C6.22453125 -0.22230469 7.1990625 -0.25710938 8.203125 -0.29296875 C11.37468742 0.03924798 12.67040307 0.88672279 15 3 C13.24929483 2.88529863 11.49942464 2.75780972 9.75 2.625 C8.77546875 2.55539062 7.8009375 2.48578125 6.796875 2.4140625 C4.10366811 2.01534751 2.33036721 1.36492937 0 0 Z " fill="#202524" transform="translate(471,342)"/>
<path d="M0 0 C0.91007812 0.10183594 1.82015625 0.20367187 2.7578125 0.30859375 C3.45648438 0.39238281 4.15515625 0.47617187 4.875 0.5625 C4.875 0.8925 4.875 1.2225 4.875 1.5625 C-0.1497239 2.18779897 -5.05028427 2.69262092 -10.125 2.5625 C-6.08912363 -0.12808425 -4.75060299 -0.5481465 0 0 Z " fill="#3B4443" transform="translate(495.125,269.4375)"/>
<path d="M0 0 C2.37948772 0.17625835 3.70225849 0.69719773 5.37890625 2.40234375 C6.62115486 3.90649092 7.81376056 5.45129851 9 7 C5.51375944 6.3543999 2.87501211 5.07639763 0 3 C0 2.01 0 1.02 0 0 Z " fill="#292F2D" transform="translate(615,196)"/>
<path d="M0 0 C0.53625 0.144375 1.0725 0.28875 1.625 0.4375 C4.39915827 1.09453748 7.18525388 1.55219948 10 2 C10 2.99 10 3.98 10 5 C6.98968256 5.93423645 6.13349732 6.04449911 3 5 C1.3125 2.4375 1.3125 2.4375 0 0 Z " fill="#363D3B" transform="translate(374,870)"/>
<path d="M0 0 C0.99 0.33 1.98 0.66 3 1 C0.36 3.64 -2.28 6.28 -5 9 C-5.33 8.01 -5.66 7.02 -6 6 C-4.02 4.02 -2.04 2.04 0 0 Z " fill="#232727" transform="translate(384,541)"/>
<path d="M0 0 C0.33 0 0.66 0 1 0 C1 3.96 1 7.92 1 12 C0.01 11.01 -0.98 10.02 -2 9 C-1.76811536 5.69564394 -1.48929359 2.97858719 0 0 Z " fill="#212523" transform="translate(400,433)"/>
<path d="M0 0 C0 0.66 0 1.32 0 2 C1.32 2.33 2.64 2.66 4 3 C-1.36891879 2.50130596 -6.69235173 1.97772468 -12 1 C-12 0.67 -12 0.34 -12 0 C-7.66726186 -0.92844389 -4.33273814 -0.92844389 0 0 Z " fill="#424845" transform="translate(468,400)"/>
<path d="M0 0 C0.66 0.66 1.32 1.32 2 2 C-0.64 2.66 -3.28 3.32 -6 4 C-6.66 3.01 -7.32 2.02 -8 1 C-3.375 -1.125 -3.375 -1.125 0 0 Z " fill="#394343" transform="translate(592,901)"/>
<path d="M0 0 C-0.33 0.99 -0.66 1.98 -1 3 C-3.875 4.3125 -3.875 4.3125 -7 5 C-7.99 4.34 -8.98 3.68 -10 3 C-2.6 0 -2.6 0 0 0 Z " fill="#353E3E" transform="translate(617,890)"/>
<path d="M0 0 C0.33 0 0.66 0 1 0 C1 2.64 1 5.28 1 8 C0.67 8 0.34 8 0 8 C-0.33 9.65 -0.66 11.3 -1 13 C-1.33 13 -1.66 13 -2 13 C-2.05416188 11.39620659 -2.09286638 9.79188594 -2.125 8.1875 C-2.14820313 7.29417969 -2.17140625 6.40085937 -2.1953125 5.48046875 C-2 3 -2 3 0 0 Z " fill="#364040" transform="translate(300,732)"/>
<path d="M0 0 C2.3129482 2.3129482 2.49580975 3.47904875 3.125 6.625 C3.29257812 7.44226563 3.46015625 8.25953125 3.6328125 9.1015625 C3.81457031 10.04128906 3.81457031 10.04128906 4 11 C3.01 11.495 3.01 11.495 2 12 C0.40861915 7.82262526 -0.21278058 4.46839215 0 0 Z " fill="#313532" transform="translate(666,662)"/>
<path d="M0 0 C3.63 0.33 7.26 0.66 11 1 C11 1.66 11 2.32 11 3 C10.34 3 9.68 3 9 3 C8.67 3.99 8.34 4.98 8 6 C7.67 5.01 7.34 4.02 7 3 C6.01 2.67 5.02 2.34 4 2 C2.68 1.34 1.36 0.68 0 0 Z " fill="#474E4B" transform="translate(475,500)"/>
<path d="M0 0 C0.66 0 1.32 0 2 0 C5.07692308 5.41538462 5.07692308 5.41538462 4.6875 8.375 C4.460625 8.91125 4.23375 9.4475 4 10 C0 3.375 0 3.375 0 0 Z " fill="#252928" transform="translate(704,625)"/>
<path d="M0 0 C3.875 3.75 3.875 3.75 5 6 C5.66 5.67 6.32 5.34 7 5 C7.66 6.32 8.32 7.64 9 9 C6.75 8.875 6.75 8.875 4 8 C0 2.91891892 0 2.91891892 0 0 Z " fill="#323D3E" transform="translate(368,791)"/>
<path d="M0 0 C1.09898702 3.29696105 0.87124444 4.40494903 0.0625 7.6875 C-0.22947266 8.89986328 -0.22947266 8.89986328 -0.52734375 10.13671875 C-0.68332031 10.75160156 -0.83929688 11.36648438 -1 12 C-1.99 11.34 -2.98 10.68 -4 10 C-2.8905928 6.51329166 -1.73662334 3.22515763 0 0 Z " fill="#343F40" transform="translate(365,638)"/>
<path d="M0 0 C4.28359673 1.8855148 6.15103592 4.35965701 9 8 C8.01 8 7.02 8 6 8 C4.39453125 6.25 4.39453125 6.25 2.8125 4 C2.28269531 3.2575 1.75289062 2.515 1.20703125 1.75 C0.80871094 1.1725 0.41039062 0.595 0 0 Z " fill="#1A1E1E" transform="translate(613,587)"/>
<path d="M0 0 C0.33 0.99 0.66 1.98 1 3 C-1.3125 6.1875 -1.3125 6.1875 -4 9 C-4.66 9 -5.32 9 -6 9 C-4.47291037 5.56404834 -2.40072955 2.88087546 0 0 Z " fill="#292E2C" transform="translate(472,523)"/>
<path d="M0 0 C3.31562557 0.55260426 6.15062207 1.16825705 9 3 C9.33 3.99 9.66 4.98 10 6 C5.56909529 4.79157144 3.01887244 3.48331435 0 0 Z " fill="#353A38" transform="translate(420,389)"/>
<path d="M0 0 C0.66 0 1.32 0 2 0 C2.66 1.98 3.32 3.96 4 6 C3.01 6.33 2.02 6.66 1 7 C-1 4 -1 4 -0.625 1.8125 C-0.41875 1.214375 -0.2125 0.61625 0 0 Z " fill="#353D3C" transform="translate(412,375)"/>
<path d="M0 0 C1.32 0.66 2.64 1.32 4 2 C2.35 3.32 0.7 4.64 -1 6 C-1.66 5.67 -2.32 5.34 -3 5 C-3 4.01 -3 3.02 -3 2 C-2.01 1.34 -1.02 0.68 0 0 Z " fill="#374040" transform="translate(500,104)"/>
<path d="M0 0 C4.7517398 0.43197635 6.92000054 1.32769295 10 5 C8.51800098 4.55090939 7.03944764 4.09043436 5.5625 3.625 C4.73878906 3.36976563 3.91507812 3.11453125 3.06640625 2.8515625 C1 2 1 2 0 0 Z " fill="#1E2322" transform="translate(429,846)"/>
<path d="M0 0 C0.99 0.33 1.98 0.66 3 1 C3.625 3.375 3.625 3.375 4 6 C3.34 6.66 2.68 7.32 2 8 C1.67 7.01 1.34 6.02 1 5 C0.34 5 -0.32 5 -1 5 C-0.67 3.35 -0.34 1.7 0 0 Z " fill="#384242" transform="translate(333,824)"/>
<path d="M0 0 C3.0916909 2.52956528 3.90931332 5.22454612 5 9 C2 8 2 8 0.8125 6.1875 C0 4 0 4 0 0 Z " fill="#292D2B" transform="translate(318,802)"/>
<path d="M0 0 C0.33 0 0.66 0 1 0 C0.88490339 1.41750563 0.75746342 2.83401169 0.625 4.25 C0.55539062 5.03890625 0.48578125 5.8278125 0.4140625 6.640625 C-0.01507113 9.085877 -0.78600638 10.84836903 -2 13 C-2.05447047 11.58376784 -2.09300508 10.16691809 -2.125 8.75 C-2.14820313 7.96109375 -2.17140625 7.1721875 -2.1953125 6.359375 C-1.9828378 3.79268059 -1.28654105 2.2083933 0 0 Z " fill="#181C19" transform="translate(303,669)"/>
<path d="M0 0 C0.33 0 0.66 0 1 0 C0.67 2.97 0.34 5.94 0 9 C-0.66 9 -1.32 9 -2 9 C-2.33 9.66 -2.66 10.32 -3 11 C-2.69078116 9.54096742 -2.37751201 8.08279278 -2.0625 6.625 C-1.88847656 5.81289063 -1.71445312 5.00078125 -1.53515625 4.1640625 C-1 2 -1 2 0 0 Z " fill="#212525" transform="translate(357,659)"/>
<path d="M0 0 C0.66 0 1.32 0 2 0 C0.64978174 4.41889613 -1.26115668 6.34345343 -5 9 C-4.42676569 5.13066838 -2.61046448 2.84777943 0 0 Z " fill="#272A29" transform="translate(391,603)"/>
<path d="M0 0 C3.36591866 1.44253657 5.51047079 3.33264727 8 6 C7.67 6.66 7.34 7.32 7 8 C5.8274869 7.04882866 4.66212985 6.08882991 3.5 5.125 C2.8503125 4.59132813 2.200625 4.05765625 1.53125 3.5078125 C1.0259375 3.01023437 0.520625 2.51265625 0 2 C0 1.34 0 0.68 0 0 Z " fill="#393E39" transform="translate(662,567)"/>
<path d="M0 0 C3.14624993 -0.26218749 4.61837017 -0.24754367 7.3125 1.5 C8.1478125 2.2425 8.1478125 2.2425 9 3 C6.29120665 4.35439668 3.99066732 4.06501451 1 4 C1.66 3.67 2.32 3.34 3 3 C3 2.34 3 1.68 3 1 C2.01 0.67 1.02 0.34 0 0 Z " fill="#333C3C" transform="translate(444,411)"/>
<path d="M0 0 C0.33 1.32 0.66 2.64 1 4 C-0.9375 6.75 -0.9375 6.75 -3 9 C-3.99 8.67 -4.98 8.34 -6 8 C-4.02 5.36 -2.04 2.72 0 0 Z " fill="#252A29" transform="translate(620,332)"/>
<path d="M0 0 C0 3 0 3 -2 5.1875 C-2.66 5.785625 -3.32 6.38375 -4 7 C-4.66 6.67 -5.32 6.34 -6 6 C-4.75453595 2.26360784 -3.36595047 1.81243487 0 0 Z " fill="#39423F" transform="translate(694,822)"/>
<path d="M0 0 C0.95465783 2.16967689 1.14401212 3.56328793 0.3984375 5.82421875 C-0.35870385 7.5684743 -1.17609198 9.28627131 -2 11 C-2.33 11 -2.66 11 -3 11 C-2.53199289 6.94393835 -2.12046792 3.53411321 0 0 Z " fill="#303331" transform="translate(710,791)"/>
<path d="M0 0 C0.99 0.99 1.98 1.98 3 3 C3.66 2.67 4.32 2.34 5 2 C5.625 3.8125 5.625 3.8125 6 6 C5.01 7.485 5.01 7.485 4 9 C0 2.25 0 2.25 0 0 Z " fill="#333E41" transform="translate(699,619)"/>
<path d="M0 0 C0.66 0 1.32 0 2 0 C5.11450382 4.15267176 5.11450382 4.15267176 4.6875 7.3125 C4.460625 7.869375 4.23375 8.42625 4 9 C0 3.375 0 3.375 0 0 Z " fill="#252A28" transform="translate(698,614)"/>
<path d="M0 0 C1.2077558 3.62326739 0.54311128 4.64146369 -1 8 C-1.99 7.67 -2.98 7.34 -4 7 C-2.92598892 4.08482708 -2.22189824 2.22189824 0 0 Z " fill="#353B3A" transform="translate(343,586)"/>
<path d="M0 0 C3.7952131 1.49097658 5.61042731 3.75700849 8 7 C4.78448712 6.65548076 3.97940123 5.97711248 1.75 3.5 C0 1 0 1 0 0 Z " fill="#252A28" transform="translate(584,561)"/>
<path d="M0 0 C3.25543229 0.34879632 4.01873107 1.02133261 6.25 3.5625 C6.8275 4.366875 7.405 5.17125 8 6 C5 6 5 6 3.61328125 4.6875 C2.40885417 3.125 1.20442708 1.5625 0 0 Z " fill="#222623" transform="translate(643,549)"/>
<path d="M0 0 C5.75 3.625 5.75 3.625 8 7 C4.65980694 6.40353695 2.49529367 5.31705841 0 3 C0 2.01 0 1.02 0 0 Z " fill="#202423" transform="translate(564,543)"/>
<path d="M0 0 C5.75 2.75 5.75 2.75 8 5 C7.67 5.99 7.34 6.98 7 8 C5.8274869 7.04882866 4.66212985 6.08882991 3.5 5.125 C2.8503125 4.59132813 2.200625 4.05765625 1.53125 3.5078125 C1.0259375 3.01023437 0.520625 2.51265625 0 2 C0 1.34 0 0.68 0 0 Z " fill="#2A2F2D" transform="translate(613,521)"/>
<path d="M0 0 C0.66 0.33 1.32 0.66 2 1 C1.67 2.32 1.34 3.64 1 5 C-0.65 5.33 -2.3 5.66 -4 6 C-2.68 4.02 -1.36 2.04 0 0 Z " fill="#1F292B" transform="translate(417,510)"/>
<path d="M0 0 C-1 2 -1 2 -3.375 3.125 C-6 4 -6 4 -9 4 C-6.56225426 0.2214941 -6.56225426 0.2214941 -3.9375 -0.8125 C-2 -1 -2 -1 0 0 Z " fill="#1C2323" transform="translate(437,268)"/>
<path d="M0 0 C0.33 0.66 0.66 1.32 1 2 C0.34 2 -0.32 2 -1 2 C-1 2.66 -1 3.32 -1 4 C-2.29233607 5.37310707 -3.62437146 6.71034824 -5 8 C-5.66 7.67 -6.32 7.34 -7 7 C-3.375 1.125 -3.375 1.125 0 0 Z " fill="#232828" transform="translate(569,213)"/>
<path d="M0 0 C2.64 0.33 5.28 0.66 8 1 C8 1.66 8 2.32 8 3 C8.66 3.33 9.32 3.66 10 4 C5.78087253 3.5205537 3.20336822 2.83374881 0 0 Z " fill="#202524" transform="translate(442,852)"/>
<path d="M0 0 C3.37462715 0.54723683 5.08235 1.0549 8 3 C8 3.66 8 4.32 8 5 C2.25 3.375 2.25 3.375 0 0 Z " fill="#272D2C" transform="translate(414,837)"/>
<path d="M0 0 C0.66 0.33 1.32 0.66 2 1 C2 1.99 2 2.98 2 4 C1.01 4.33 0.02 4.66 -1 5 C-1.99 4.34 -2.98 3.68 -4 3 C-2.68 2.01 -1.36 1.02 0 0 Z " fill="#3B4444" transform="translate(608,835)"/>
<path d="M0 0 C0 3 0 3 -2.5 5.6875 C-3.325 6.450625 -4.15 7.21375 -5 8 C-4.45773019 4.20411134 -2.79872437 2.52788007 0 0 Z " fill="#212726" transform="translate(650,796)"/>
<path d="M0 0 C2.79872437 2.52788007 4.45773019 4.20411134 5 8 C3.0625 7.375 3.0625 7.375 1 6 C0.25 2.875 0.25 2.875 0 0 Z " fill="#232927" transform="translate(358,769)"/>
<path d="M0 0 C0.33 0.66 0.66 1.32 1 2 C0.22265625 3.7265625 0.22265625 3.7265625 -0.9375 5.625 C-1.618125 6.73875 -2.29875 7.8525 -3 9 C-3.75 7.3125 -3.75 7.3125 -4 5 C-2.0625 2.25 -2.0625 2.25 0 0 Z " fill="#222625" transform="translate(322,620)"/>
<path d="M0 0 C0.99 0.33 1.98 0.66 3 1 C1.35 2.65 -0.3 4.3 -2 6 C-2.99 5.67 -3.98 5.34 -5 5 C-3.35 3.35 -1.7 1.7 0 0 Z " fill="#232827" transform="translate(374,551)"/>
<path d="M0 0 C2.31 0 4.62 0 7 0 C7 0.33 7 0.66 7 1 C8.65 1.33 10.3 1.66 12 2 C12 2.33 12 2.66 12 3 C4.61538462 3.36923077 4.61538462 3.36923077 1.5 1.5 C1.005 1.005 0.51 0.51 0 0 Z " fill="#363C3A" transform="translate(563,493)"/>
<path d="M0 0 C0.66 0.33 1.32 0.66 2 1 C2 1.99 2 2.98 2 4 C0.1875 4.625 0.1875 4.625 -2 5 C-2.99 4.34 -3.98 3.68 -5 3 C-2.625 1.4375 -2.625 1.4375 0 0 Z " fill="#384243" transform="translate(594,488)"/>
<path d="M0 0 C0.33 0.66 0.66 1.32 1 2 C1.66 2 2.32 2 3 2 C3.66 4.64 4.32 7.28 5 10 C2.66063182 7.87330165 1.19346152 5.93775144 0 3 C0 2.01 0 1.02 0 0 Z " fill="#454A47" transform="translate(418,301)"/>
<path d="M0 0 C2.91517292 1.07401108 4.77810176 1.77810176 7 4 C6.67 4.99 6.34 5.98 6 7 C3.95880212 5.38405168 1.95927063 3.7143618 0 2 C0 1.34 0 0.68 0 0 Z " fill="#282D2B" transform="translate(611,294)"/>
<path d="M0 0 C0.66 0.33 1.32 0.66 2 1 C2 1.99 2 2.98 2 4 C0.35 4.66 -1.3 5.32 -3 6 C-3 3 -3 3 -1.5 1.3125 C-0.7575 0.6628125 -0.7575 0.6628125 0 0 Z " fill="#364242" transform="translate(589,193)"/>
<path d="M0 0 C0.66 0 1.32 0 2 0 C0.60667426 3.36720387 -0.9789286 4.9859524 -4 7 C-4 6.01 -4 5.02 -4 4 C-3.34 4 -2.68 4 -2 4 C-1.34 2.68 -0.68 1.36 0 0 Z " fill="#242929" transform="translate(671,848)"/>
<path d="M0 0 C0.66 0.33 1.32 0.66 2 1 C0.68 2.65 -0.64 4.3 -2 6 C-3.32 5.67 -4.64 5.34 -6 5 C-4.02 3.35 -2.04 1.7 0 0 Z " fill="#3A3F3D" transform="translate(619,827)"/>
<path d="M0 0 C2.50298434 2.93828597 3.46930939 5.17902761 4 9 C3.34 9 2.68 9 2 9 C0.50178941 5.62902617 0 3.79557881 0 0 Z " fill="#252927" transform="translate(312,789)"/>
<path d="M0 0 C1.8125 0.1875 1.8125 0.1875 4 1 C5.75 3.5625 5.75 3.5625 7 6 C6.01 6 5.02 6 4 6 C3.34 4.68 2.68 3.36 2 2 C1.34 2 0.68 2 0 2 C0 1.34 0 0.68 0 0 Z " fill="#272C2B" transform="translate(656,561)"/>
<path d="M0 0 C-0.33 0.66 -0.66 1.32 -1 2 C-3.97 1.67 -6.94 1.34 -10 1 C-5.64467851 -1.17766075 -4.53374042 -1.03039555 0 0 Z " fill="#363C3A" transform="translate(590,347)"/>
<path d="M0 0 C1.98 0 3.96 0 6 0 C6 0.33 6 0.66 6 1 C4.02 1 2.04 1 0 1 C0 0.67 0 0.34 0 0 Z " fill="#4E5756" transform="translate(454,336)"/>
<path d="M0 0 C0.99 0.33 1.98 0.66 3 1 C2.67 1.66 2.34 2.32 2 3 C1.34 2.01 0.68 1.02 0 0 Z " fill="#515A57" transform="translate(441,475)"/>
<path d="M0 0 C4 1 4 1 4 1 Z " fill="#515856" transform="translate(490,918)"/>
<path d="M0 0 C0 3 0 3 0 3 Z " fill="#525954" transform="translate(298,753)"/>
<path d="M0 0 C0.99 0.33 1.98 0.66 3 1 C2.01 1 1.02 1 0 1 C0 0.67 0 0.34 0 0 Z " fill="#505856" transform="translate(665,675)"/>
<path d="M0 0 C0.99 0.495 0.99 0.495 2 1 C1.34 1.66 0.68 2.32 0 3 C0 2.01 0 1.02 0 0 Z " fill="#585C58" transform="translate(400,424)"/>
<path d="M0 0 C4 1 4 1 4 1 Z " fill="#525B5A" transform="translate(422,408)"/>
<path d="M0 0 C4 1 4 1 4 1 Z " fill="#515B59" transform="translate(517,272)"/>
<path d="M0 0 C0.99 0.33 1.98 0.66 3 1 C2.01 1 1.02 1 0 1 C0 0.67 0 0.34 0 0 Z " fill="#505956" transform="translate(536,259)"/>
<path d="" fill="#545C58" transform="translate(0,0)"/>
<path d="" fill="#505856" transform="translate(0,0)"/>
<path d="M0 0 C0.66 0 1.32 0 2 0 C1.67 0.66 1.34 1.32 1 2 C0.67 1.34 0.34 0.68 0 0 Z " fill="#535A58" transform="translate(416,506)"/>
<path d="M0 0 C3 1 3 1 3 1 Z " fill="#575D5A" transform="translate(464,496)"/>
<path d="M0 0 C0.99 0.495 0.99 0.495 2 1 C1.01 1.495 1.01 1.495 0 2 C0 1.34 0 0.68 0 0 Z " fill="#4F5957" transform="translate(546,493)"/>
<path d="M0 0 C3 1 3 1 3 1 Z " fill="#4E5754" transform="translate(489,483)"/>
<path d="M0 0 C0.66 0.66 1.32 1.32 2 2 C1.34 2 0.68 2 0 2 C0 1.34 0 0.68 0 0 Z " fill="#4F5955" transform="translate(420,408)"/>
<path d="M0 0 C0.66 0 1.32 0 2 0 C1.67 0.66 1.34 1.32 1 2 C0.67 1.34 0.34 0.68 0 0 Z " fill="#4B5454" transform="translate(538,341)"/>
<path d="M0 0 C3 1 3 1 3 1 Z " fill="#515B59" transform="translate(526,272)"/>
<path d="" fill="#515855" transform="translate(0,0)"/>
<path d="M0 0 C2 1 2 1 2 1 Z " fill="#545D58" transform="translate(514,919)"/>
<path d="M0 0 C2 1 2 1 2 1 Z " fill="#535B58" transform="translate(532,918)"/>
<path d="M0 0 C2 1 2 1 2 1 Z " fill="#4F5753" transform="translate(537,917)"/>
<path d="" fill="#525856" transform="translate(0,0)"/>
<path d="" fill="#525855" transform="translate(0,0)"/>
<path d="M0 0 C2 1 2 1 2 1 Z " fill="#505554" transform="translate(400,895)"/>
<path d="M0 0 C2 1 2 1 2 1 Z " fill="#4E534E" transform="translate(406,893)"/>
<path d="" fill="#525955" transform="translate(0,0)"/>
<path d="M0 0 C2 1 2 1 2 1 Z " fill="#4F5853" transform="translate(368,868)"/>
<path d="M0 0 C2 1 2 1 2 1 Z " fill="#515A57" transform="translate(535,859)"/>
<path d="M0 0 C2 1 2 1 2 1 Z " fill="#505A55" transform="translate(549,858)"/>
<path d="" fill="#4F5856" transform="translate(0,0)"/>
<path d="M0 0 C2 1 2 1 2 1 Z " fill="#4F5653" transform="translate(581,848)"/>
<path d="" fill="#505753" transform="translate(0,0)"/>
<path d="M0 0 C2 1 2 1 2 1 Z " fill="#4E5455" transform="translate(597,840)"/>
<path d="M0 0 C2 1 2 1 2 1 Z " fill="#4F5550" transform="translate(337,837)"/>
<path d="" fill="#535B58" transform="translate(0,0)"/>
<path d="M0 0 C2 1 2 1 2 1 Z " fill="#515755" transform="translate(316,807)"/>
<path d="M0 0 C2 1 2 1 2 1 Z " fill="#505655" transform="translate(648,786)"/>
<path d="" fill="#4E5756" transform="translate(0,0)"/>
<path d="" fill="#4B5652" transform="translate(0,0)"/>
<path d="" fill="#565C57" transform="translate(0,0)"/>
<path d="" fill="#515656" transform="translate(0,0)"/>
<path d="" fill="#4F5757" transform="translate(0,0)"/>
<path d="" fill="#515855" transform="translate(0,0)"/>
<path d="" fill="#535959" transform="translate(0,0)"/>
<path d="" fill="#515653" transform="translate(0,0)"/>
<path d="" fill="#4F5651" transform="translate(0,0)"/>
<path d="" fill="#565B57" transform="translate(0,0)"/>
<path d="" fill="#525A57" transform="translate(0,0)"/>
<path d="M0 0 C2 1 2 1 2 1 Z " fill="#525956" transform="translate(539,504)"/>
<path d="" fill="#555C59" transform="translate(0,0)"/>
<path d="" fill="#4F5955" transform="translate(0,0)"/>
<path d="M0 0 C2 1 2 1 2 1 Z " fill="#535B58" transform="translate(481,485)"/>
<path d="M0 0 C2 1 2 1 2 1 Z " fill="#58605D" transform="translate(465,479)"/>
<path d="M0 0 C2 1 2 1 2 1 Z " fill="#4F5958" transform="translate(575,432)"/>
<path d="M0 0 C2 1 2 1 2 1 Z " fill="#505958" transform="translate(529,424)"/>
<path d="M0 0 C2 1 2 1 2 1 Z " fill="#495250" transform="translate(526,424)"/>
<path d="M0 0 C2 1 2 1 2 1 Z " fill="#4F5855" transform="translate(567,422)"/>
<path d="M0 0 C2 1 2 1 2 1 Z " fill="#4D5555" transform="translate(482,416)"/>
<path d="M0 0 C2 1 2 1 2 1 Z " fill="#4F5655" transform="translate(523,414)"/>
<path d="" fill="#525A59" transform="translate(0,0)"/>
<path d="M0 0 C2 1 2 1 2 1 Z " fill="#4C5551" transform="translate(465,403)"/>
<path d="M0 0 C2 1 2 1 2 1 Z " fill="#4F5453" transform="translate(436,398)"/>
<path d="M0 0 C2 1 2 1 2 1 Z " fill="#535B58" transform="translate(427,396)"/>
<path d="M0 0 C2 1 2 1 2 1 Z " fill="#4E5554" transform="translate(424,394)"/>
<path d="" fill="#535958" transform="translate(0,0)"/>
<path d="" fill="#525957" transform="translate(0,0)"/>
<path d="M0 0 C2 1 2 1 2 1 Z " fill="#565C57" transform="translate(609,368)"/>
<path d="M0 0 C2 1 2 1 2 1 Z " fill="#4E5756" transform="translate(542,352)"/>
<path d="M0 0 C2 1 2 1 2 1 Z " fill="#505654" transform="translate(596,351)"/>
<path d="M0 0 C2 1 2 1 2 1 Z " fill="#4F5755" transform="translate(593,351)"/>
<path d="" fill="#4F5758" transform="translate(0,0)"/>
<path d="" fill="#505A59" transform="translate(0,0)"/>
<path d="M0 0 C2 1 2 1 2 1 Z " fill="#505856" transform="translate(481,331)"/>
<path d="M0 0 C2 1 2 1 2 1 Z " fill="#4D5457" transform="translate(453,326)"/>
<path d="" fill="#505554" transform="translate(0,0)"/>
<path d="M0 0 C2 1 2 1 2 1 Z " fill="#525B58" transform="translate(547,263)"/>
<path d="M0 0 C2 1 2 1 2 1 Z " fill="#505855" transform="translate(554,262)"/>
<path d="M0 0 C2 1 2 1 2 1 Z " fill="#565C5A" transform="translate(545,261)"/>
<path d="" fill="#4D5351" transform="translate(0,0)"/>
<path d="M0 0 C2 1 2 1 2 1 Z " fill="#4F5755" transform="translate(576,200)"/>
<path d="M0 0 C2 1 2 1 2 1 Z " fill="#575C58" transform="translate(614,192)"/>
<path d="M0 0 C2 1 2 1 2 1 Z " fill="#555A56" transform="translate(594,189)"/>
<path d="" fill="#545D58" transform="translate(0,0)"/>
<path d="" fill="#555A57" transform="translate(0,0)"/>
<path d="" fill="#555A57" transform="translate(0,0)"/>
<path d="" fill="#535958" transform="translate(0,0)"/>
<path d="" fill="#525757" transform="translate(0,0)"/>
<path d="" fill="#515855" transform="translate(0,0)"/>
<path d="" fill="#525953" transform="translate(0,0)"/>
<path d="" fill="#505B57" transform="translate(0,0)"/>
<path d="" fill="#545B5A" transform="translate(0,0)"/>
<path d="" fill="#4F5854" transform="translate(0,0)"/>
<path d="" fill="#525754" transform="translate(0,0)"/>
<path d="" fill="#505855" transform="translate(0,0)"/>
<path d="" fill="#4A4F4B" transform="translate(0,0)"/>
<path d="" fill="#5B4F33" transform="translate(0,0)"/>
<path d="" fill="#525954" transform="translate(0,0)"/>
<path d="" fill="#525753" transform="translate(0,0)"/>
<path d="" fill="#515854" transform="translate(0,0)"/>
<path d="" fill="#535653" transform="translate(0,0)"/>
<path d="" fill="#4E5650" transform="translate(0,0)"/>
<path d="" fill="#4C504D" transform="translate(0,0)"/>
<path d="" fill="#545955" transform="translate(0,0)"/>
<path d="" fill="#505752" transform="translate(0,0)"/>
<path d="" fill="#4E5551" transform="translate(0,0)"/>
<path d="" fill="#555655" transform="translate(0,0)"/>
<path d="" fill="#525754" transform="translate(0,0)"/>
<path d="" fill="#525955" transform="translate(0,0)"/>
<path d="" fill="#505652" transform="translate(0,0)"/>
<path d="" fill="#505854" transform="translate(0,0)"/>
<path d="" fill="#52554F" transform="translate(0,0)"/>
<path d="" fill="#515551" transform="translate(0,0)"/>
<path d="" fill="#515551" transform="translate(0,0)"/>
<path d="" fill="#4F5350" transform="translate(0,0)"/>
<path d="" fill="#565A59" transform="translate(0,0)"/>
<path d="" fill="#505B57" transform="translate(0,0)"/>
<path d="" fill="#555E5A" transform="translate(0,0)"/>
<path d="" fill="#525B57" transform="translate(0,0)"/>
<path d="" fill="#535C58" transform="translate(0,0)"/>
<path d="" fill="#525B5A" transform="translate(0,0)"/>
<path d="" fill="#525C59" transform="translate(0,0)"/>
<path d="" fill="#4E5350" transform="translate(0,0)"/>
<path d="" fill="#505754" transform="translate(0,0)"/>
<path d="" fill="#515957" transform="translate(0,0)"/>
<path d="" fill="#555A57" transform="translate(0,0)"/>
<path d="" fill="#525956" transform="translate(0,0)"/>
<path d="" fill="#535754" transform="translate(0,0)"/>
<path d="" fill="#505756" transform="translate(0,0)"/>
<path d="" fill="#505552" transform="translate(0,0)"/>
<path d="" fill="#4F5653" transform="translate(0,0)"/>
<path d="" fill="#4E5954" transform="translate(0,0)"/>
<path d="" fill="#525552" transform="translate(0,0)"/>
<path d="" fill="#4F5855" transform="translate(0,0)"/>
<path d="" fill="#4C5451" transform="translate(0,0)"/>
<path d="" fill="#4F5653" transform="translate(0,0)"/>
<path d="" fill="#545A54" transform="translate(0,0)"/>
<path d="" fill="#535A5A" transform="translate(0,0)"/>
<path d="" fill="#555B59" transform="translate(0,0)"/>
<path d="" fill="#505B54" transform="translate(0,0)"/>
<path d="" fill="#4B5652" transform="translate(0,0)"/>
<path d="" fill="#4F544E" transform="translate(0,0)"/>
<path d="" fill="#525751" transform="translate(0,0)"/>
<path d="" fill="#525955" transform="translate(0,0)"/>
<path d="" fill="#525B56" transform="translate(0,0)"/>
<path d="" fill="#4F5753" transform="translate(0,0)"/>
<path d="" fill="#4F5A56" transform="translate(0,0)"/>
<path d="" fill="#4E5754" transform="translate(0,0)"/>
<path d="" fill="#555A59" transform="translate(0,0)"/>
<path d="" fill="#505957" transform="translate(0,0)"/>
<path d="" fill="#545B57" transform="translate(0,0)"/>
<path d="" fill="#525C56" transform="translate(0,0)"/>
<path d="" fill="#535855" transform="translate(0,0)"/>
<path d="" fill="#505856" transform="translate(0,0)"/>
<path d="" fill="#505853" transform="translate(0,0)"/>
<path d="" fill="#565D56" transform="translate(0,0)"/>
<path d="" fill="#535653" transform="translate(0,0)"/>
<path d="" fill="#565755" transform="translate(0,0)"/>
<path d="" fill="#4D5756" transform="translate(0,0)"/>
<path d="" fill="#525855" transform="translate(0,0)"/>
<path d="" fill="#515955" transform="translate(0,0)"/>
<path d="" fill="#49534E" transform="translate(0,0)"/>
<path d="" fill="#4F5A57" transform="translate(0,0)"/>
<path d="" fill="#545B55" transform="translate(0,0)"/>
<path d="" fill="#505657" transform="translate(0,0)"/>
<path d="" fill="#4F5856" transform="translate(0,0)"/>
<path d="" fill="#4E5857" transform="translate(0,0)"/>
<path d="" fill="#4E5951" transform="translate(0,0)"/>
<path d="" fill="#545B59" transform="translate(0,0)"/>
<path d="" fill="#565C59" transform="translate(0,0)"/>
<path d="" fill="#515854" transform="translate(0,0)"/>
<path d="" fill="#51595A" transform="translate(0,0)"/>
<path d="" fill="#4F5657" transform="translate(0,0)"/>
<path d="" fill="#515B5A" transform="translate(0,0)"/>
<path d="" fill="#505A59" transform="translate(0,0)"/>
<path d="" fill="#4D5958" transform="translate(0,0)"/>
<path d="" fill="#4C5954" transform="translate(0,0)"/>
<path d="" fill="#525857" transform="translate(0,0)"/>
<path d="" fill="#565D5B" transform="translate(0,0)"/>
<path d="" fill="#575B5B" transform="translate(0,0)"/>
<path d="" fill="#58615B" transform="translate(0,0)"/>
<path d="" fill="#4F5654" transform="translate(0,0)"/>
<path d="" fill="#4E5B58" transform="translate(0,0)"/>
<path d="" fill="#545956" transform="translate(0,0)"/>
<path d="" fill="#525958" transform="translate(0,0)"/>
<path d="" fill="#505753" transform="translate(0,0)"/>
<path d="" fill="#515758" transform="translate(0,0)"/>
<path d="" fill="#4F5658" transform="translate(0,0)"/>
<path d="" fill="#535858" transform="translate(0,0)"/>
<path d="" fill="#555D57" transform="translate(0,0)"/>
<path d="" fill="#525858" transform="translate(0,0)"/>
<path d="" fill="#4D5652" transform="translate(0,0)"/>
<path d="" fill="#555A56" transform="translate(0,0)"/>
<path d="" fill="#505955" transform="translate(0,0)"/>
<path d="" fill="#535958" transform="translate(0,0)"/>
<path d="" fill="#535755" transform="translate(0,0)"/>
<path d="" fill="#4F5553" transform="translate(0,0)"/>
<path d="" fill="#565E57" transform="translate(0,0)"/>
<path d="" fill="#4D5451" transform="translate(0,0)"/>
<path d="" fill="#4F5954" transform="translate(0,0)"/>
<path d="" fill="#535A58" transform="translate(0,0)"/>
<path d="" fill="#4E5450" transform="translate(0,0)"/>
<path d="" fill="#525A57" transform="translate(0,0)"/>
<path d="" fill="#535954" transform="translate(0,0)"/>
<path d="" fill="#515956" transform="translate(0,0)"/>
<path d="" fill="#4F5751" transform="translate(0,0)"/>
<path d="" fill="#555B57" transform="translate(0,0)"/>
<path d="" fill="#515751" transform="translate(0,0)"/>
<path d="" fill="#525A56" transform="translate(0,0)"/>
<path d="" fill="#515756" transform="translate(0,0)"/>
<path d="" fill="#585A59" transform="translate(0,0)"/>
<path d="" fill="#525A56" transform="translate(0,0)"/>
<path d="" fill="#525854" transform="translate(0,0)"/>
<path d="" fill="#4E5551" transform="translate(0,0)"/>
<path d="" fill="#505853" transform="translate(0,0)"/>
<path d="" fill="#565A57" transform="translate(0,0)"/>
<path d="" fill="#535656" transform="translate(0,0)"/>
<path d="" fill="#525A52" transform="translate(0,0)"/>
<path d="" fill="#555C59" transform="translate(0,0)"/>
<path d="" fill="#525A55" transform="translate(0,0)"/>
<path d="" fill="#4F5755" transform="translate(0,0)"/>
<path d="" fill="#545A54" transform="translate(0,0)"/>
<path d="" fill="#535A54" transform="translate(0,0)"/>
<path d="" fill="#505855" transform="translate(0,0)"/>
<path d="" fill="#555C56" transform="translate(0,0)"/>
<path d="" fill="#525853" transform="translate(0,0)"/>
<path d="" fill="#575B55" transform="translate(0,0)"/>
<path d="" fill="#575A55" transform="translate(0,0)"/>
<path d="" fill="#535957" transform="translate(0,0)"/>
<path d="" fill="#505955" transform="translate(0,0)"/>
<path d="" fill="#535A57" transform="translate(0,0)"/>
<path d="" fill="#515855" transform="translate(0,0)"/>
<path d="" fill="#505955" transform="translate(0,0)"/>
<path d="" fill="#515855" transform="translate(0,0)"/>
<path d="" fill="#535751" transform="translate(0,0)"/>
<path d="" fill="#545A57" transform="translate(0,0)"/>
<path d="" fill="#565959" transform="translate(0,0)"/>
<path d="" fill="#545B55" transform="translate(0,0)"/>
<path d="" fill="#535953" transform="translate(0,0)"/>
<path d="" fill="#545956" transform="translate(0,0)"/>
<path d="" fill="#565C55" transform="translate(0,0)"/>
<path d="" fill="#565A57" transform="translate(0,0)"/>
<path d="" fill="#4F524E" transform="translate(0,0)"/>
<path d="" fill="#535956" transform="translate(0,0)"/>
<path d="" fill="#515A52" transform="translate(0,0)"/>
<path d="" fill="#505556" transform="translate(0,0)"/>
<path d="" fill="#535955" transform="translate(0,0)"/>
<path d="" fill="#535C56" transform="translate(0,0)"/>
<path d="" fill="#505955" transform="translate(0,0)"/>
<path d="" fill="#555754" transform="translate(0,0)"/>
<path d="" fill="#555C58" transform="translate(0,0)"/>
<path d="" fill="#545A56" transform="translate(0,0)"/>
<path d="" fill="#535956" transform="translate(0,0)"/>
<path d="" fill="#545752" transform="translate(0,0)"/>
<path d="" fill="#535752" transform="translate(0,0)"/>
<path d="" fill="#4F5656" transform="translate(0,0)"/>
<path d="" fill="#555854" transform="translate(0,0)"/>
<path d="" fill="#525856" transform="translate(0,0)"/>
<path d="" fill="#565956" transform="translate(0,0)"/>
<path d="" fill="#545A57" transform="translate(0,0)"/>
<path d="" fill="#545553" transform="translate(0,0)"/>
<path d="" fill="#545C56" transform="translate(0,0)"/>
<path d="" fill="#555956" transform="translate(0,0)"/>
<path d="" fill="#55585A" transform="translate(0,0)"/>
<path d="" fill="#545854" transform="translate(0,0)"/>
<path d="" fill="#525856" transform="translate(0,0)"/>
<path d="" fill="#525852" transform="translate(0,0)"/>
<path d="" fill="#535A57" transform="translate(0,0)"/>
<path d="" fill="#535B59" transform="translate(0,0)"/>
<path d="" fill="#495250" transform="translate(0,0)"/>
<path d="" fill="#535D5C" transform="translate(0,0)"/>
<path d="" fill="#525B58" transform="translate(0,0)"/>
<path d="" fill="#535856" transform="translate(0,0)"/>
<path d="" fill="#555E5E" transform="translate(0,0)"/>
<path d="" fill="#515B57" transform="translate(0,0)"/>
<path d="" fill="#525A59" transform="translate(0,0)"/>
<path d="" fill="#545B59" transform="translate(0,0)"/>
<path d="" fill="#535D58" transform="translate(0,0)"/>
<path d="" fill="#4E5A58" transform="translate(0,0)"/>
<path d="" fill="#535A59" transform="translate(0,0)"/>
<path d="" fill="#4C5553" transform="translate(0,0)"/>
<path d="" fill="#535B5A" transform="translate(0,0)"/>
<path d="" fill="#525A58" transform="translate(0,0)"/>
<path d="" fill="#545C5B" transform="translate(0,0)"/>
<path d="" fill="#525855" transform="translate(0,0)"/>
<path d="" fill="#535958" transform="translate(0,0)"/>
<path d="" fill="#515B56" transform="translate(0,0)"/>
<path d="" fill="#555C58" transform="translate(0,0)"/>
<path d="" fill="#565B59" transform="translate(0,0)"/>
<path d="" fill="#565A59" transform="translate(0,0)"/>
<path d="" fill="#565D58" transform="translate(0,0)"/>
<path d="" fill="#575E58" transform="translate(0,0)"/>
<path d="" fill="#505652" transform="translate(0,0)"/>
<path d="" fill="#4D5556" transform="translate(0,0)"/>
<path d="" fill="#545955" transform="translate(0,0)"/>
<path d="" fill="#565D58" transform="translate(0,0)"/>
<path d="" fill="#545957" transform="translate(0,0)"/>
<path d="" fill="#495355" transform="translate(0,0)"/>
<path d="" fill="#505A58" transform="translate(0,0)"/>
<path d="" fill="#4C5555" transform="translate(0,0)"/>
<path d="" fill="#4C5354" transform="translate(0,0)"/>
<path d="" fill="#515859" transform="translate(0,0)"/>
<path d="" fill="#505858" transform="translate(0,0)"/>
<path d="" fill="#4F5959" transform="translate(0,0)"/>
<path d="" fill="#4F5857" transform="translate(0,0)"/>
<path d="" fill="#4E5757" transform="translate(0,0)"/>
<path d="" fill="#505959" transform="translate(0,0)"/>
<path d="" fill="#555A5A" transform="translate(0,0)"/>
<path d="" fill="#535B56" transform="translate(0,0)"/>
<path d="" fill="#515956" transform="translate(0,0)"/>
<path d="" fill="#515A56" transform="translate(0,0)"/>
<path d="" fill="#525956" transform="translate(0,0)"/>
<path d="" fill="#505857" transform="translate(0,0)"/>
<path d="" fill="#4F5956" transform="translate(0,0)"/>
<path d="" fill="#4E5752" transform="translate(0,0)"/>
<path d="" fill="#4E5657" transform="translate(0,0)"/>
<path d="" fill="#4F595C" transform="translate(0,0)"/>
<path d="" fill="#595F58" transform="translate(0,0)"/>
<path d="" fill="#565959" transform="translate(0,0)"/>
<path d="" fill="#515B56" transform="translate(0,0)"/>
<path d="" fill="#535854" transform="translate(0,0)"/>
<path d="" fill="#4E5756" transform="translate(0,0)"/>
<path d="" fill="#545A56" transform="translate(0,0)"/>
<path d="" fill="#505A58" transform="translate(0,0)"/>
<path d="" fill="#525756" transform="translate(0,0)"/>
<path d="" fill="#515B59" transform="translate(0,0)"/>
<path d="" fill="#515C59" transform="translate(0,0)"/>
<path d="" fill="#515858" transform="translate(0,0)"/>
<path d="" fill="#545A5A" transform="translate(0,0)"/>
<path d="" fill="#535A57" transform="translate(0,0)"/>
<path d="" fill="#515D5B" transform="translate(0,0)"/>
<path d="" fill="#545B59" transform="translate(0,0)"/>
<path d="" fill="#4B5151" transform="translate(0,0)"/>
<path d="" fill="#505A56" transform="translate(0,0)"/>
<path d="" fill="#535B59" transform="translate(0,0)"/>
<path d="" fill="#4F5956" transform="translate(0,0)"/>
<path d="" fill="#525B57" transform="translate(0,0)"/>
<path d="" fill="#535956" transform="translate(0,0)"/>
<path d="" fill="#535B56" transform="translate(0,0)"/>
<path d="" fill="#525958" transform="translate(0,0)"/>
<path d="" fill="#585F5C" transform="translate(0,0)"/>
<path d="" fill="#535857" transform="translate(0,0)"/>
<path d="" fill="#565E59" transform="translate(0,0)"/>
<path d="" fill="#545A57" transform="translate(0,0)"/>
<path d="" fill="#525D57" transform="translate(0,0)"/>
<path d="" fill="#515953" transform="translate(0,0)"/>
<path d="" fill="#545D5A" transform="translate(0,0)"/>
<path d="" fill="#585B56" transform="translate(0,0)"/>
<path d="" fill="#535857" transform="translate(0,0)"/>
<path d="" fill="#575C56" transform="translate(0,0)"/>
<path d="" fill="#575A57" transform="translate(0,0)"/>
<path d="" fill="#515B56" transform="translate(0,0)"/>
<path d="" fill="#505856" transform="translate(0,0)"/>
<path d="" fill="#4F5856" transform="translate(0,0)"/>
<path d="" fill="#4F5957" transform="translate(0,0)"/>
<path d="" fill="#4F5857" transform="translate(0,0)"/>
<path d="" fill="#645837" transform="translate(0,0)"/>
<path d="" fill="#515B5A" transform="translate(0,0)"/>
<path d="" fill="#525A58" transform="translate(0,0)"/>
<path d="" fill="#515959" transform="translate(0,0)"/>
<path d="" fill="#4E5859" transform="translate(0,0)"/>
<path d="" fill="#4A5654" transform="translate(0,0)"/>
<path d="" fill="#535B5A" transform="translate(0,0)"/>
<path d="" fill="#535A58" transform="translate(0,0)"/>
<path d="" fill="#525B57" transform="translate(0,0)"/>
<path d="" fill="#4F5855" transform="translate(0,0)"/>
<path d="" fill="#505954" transform="translate(0,0)"/>
<path d="" fill="#515A59" transform="translate(0,0)"/>
<path d="" fill="#4F5956" transform="translate(0,0)"/>
<path d="" fill="#525857" transform="translate(0,0)"/>
<path d="" fill="#4E5A58" transform="translate(0,0)"/>
<path d="" fill="#505A5A" transform="translate(0,0)"/>
<path d="" fill="#515B59" transform="translate(0,0)"/>
<path d="" fill="#4F5957" transform="translate(0,0)"/>
<path d="" fill="#4E5555" transform="translate(0,0)"/>
<path d="" fill="#505B5A" transform="translate(0,0)"/>
<path d="" fill="#525B59" transform="translate(0,0)"/>
<path d="" fill="#4F5958" transform="translate(0,0)"/>
<path d="" fill="#535956" transform="translate(0,0)"/>
<path d="" fill="#4F5859" transform="translate(0,0)"/>
<path d="" fill="#4D585A" transform="translate(0,0)"/>
<path d="" fill="#4C5655" transform="translate(0,0)"/>
<path d="" fill="#515957" transform="translate(0,0)"/>
<path d="" fill="#4C5552" transform="translate(0,0)"/>
<path d="" fill="#555C58" transform="translate(0,0)"/>
<path d="" fill="#535A57" transform="translate(0,0)"/>
<path d="" fill="#505857" transform="translate(0,0)"/>
<path d="" fill="#575A58" transform="translate(0,0)"/>
<path d="" fill="#515B57" transform="translate(0,0)"/>
<path d="" fill="#505857" transform="translate(0,0)"/>
<path d="" fill="#505758" transform="translate(0,0)"/>
<path d="" fill="#4F5756" transform="translate(0,0)"/>
<path d="" fill="#4E5754" transform="translate(0,0)"/>
<path d="" fill="#565C58" transform="translate(0,0)"/>
<path d="" fill="#515757" transform="translate(0,0)"/>
<path d="" fill="#505A57" transform="translate(0,0)"/>
<path d="" fill="#4C5756" transform="translate(0,0)"/>
<path d="" fill="#525957" transform="translate(0,0)"/>
<path d="" fill="#535A58" transform="translate(0,0)"/>
<path d="" fill="#525A5A" transform="translate(0,0)"/>
<path d="" fill="#535B5A" transform="translate(0,0)"/>
<path d="" fill="#515A58" transform="translate(0,0)"/>
<path d="" fill="#545A59" transform="translate(0,0)"/>
<path d="" fill="#545D5E" transform="translate(0,0)"/>
<path d="" fill="#535758" transform="translate(0,0)"/>
<path d="" fill="#505A55" transform="translate(0,0)"/>
<path d="" fill="#505754" transform="translate(0,0)"/>
<path d="" fill="#535B58" transform="translate(0,0)"/>
<path d="" fill="#545A56" transform="translate(0,0)"/>
<path d="" fill="#4F5958" transform="translate(0,0)"/>
<path d="" fill="#505A59" transform="translate(0,0)"/>
<path d="" fill="#525854" transform="translate(0,0)"/>
<path d="" fill="#505A56" transform="translate(0,0)"/>
<path d="" fill="#525956" transform="translate(0,0)"/>
<path d="" fill="#505957" transform="translate(0,0)"/>
<path d="" fill="#585C58" transform="translate(0,0)"/>
<path d="" fill="#525B56" transform="translate(0,0)"/>
<path d="" fill="#565F57" transform="translate(0,0)"/>
<path d="" fill="#4E5757" transform="translate(0,0)"/>
<path d="" fill="#525A57" transform="translate(0,0)"/>
<path d="" fill="#4E5755" transform="translate(0,0)"/>
<path d="" fill="#4F5958" transform="translate(0,0)"/>
<path d="" fill="#565D5A" transform="translate(0,0)"/>
<path d="" fill="#505957" transform="translate(0,0)"/>
<path d="" fill="#4F5956" transform="translate(0,0)"/>
<path d="" fill="#535C5D" transform="translate(0,0)"/>
<path d="" fill="#4D5657" transform="translate(0,0)"/>
<path d="" fill="#4D5656" transform="translate(0,0)"/>
<path d="" fill="#565E5C" transform="translate(0,0)"/>
<path d="" fill="#515B5C" transform="translate(0,0)"/>
<path d="" fill="#555D5A" transform="translate(0,0)"/>
<path d="" fill="#4E5753" transform="translate(0,0)"/>
<path d="" fill="#555E5D" transform="translate(0,0)"/>
<path d="" fill="#545D57" transform="translate(0,0)"/>
<path d="" fill="#535E5B" transform="translate(0,0)"/>
<path d="" fill="#555C5B" transform="translate(0,0)"/>
<path d="" fill="#525E5D" transform="translate(0,0)"/>
<path d="" fill="#4D5654" transform="translate(0,0)"/>
<path d="" fill="#555D5B" transform="translate(0,0)"/>
<path d="" fill="#535E5D" transform="translate(0,0)"/>
<path d="" fill="#525857" transform="translate(0,0)"/>
<path d="" fill="#4E5754" transform="translate(0,0)"/>
<path d="" fill="#505755" transform="translate(0,0)"/>
<path d="" fill="#545C58" transform="translate(0,0)"/>
<path d="" fill="#4D5451" transform="translate(0,0)"/>
<path d="" fill="#4B514F" transform="translate(0,0)"/>
<path d="" fill="#4F5554" transform="translate(0,0)"/>
<path d="" fill="#505655" transform="translate(0,0)"/>
<path d="" fill="#4C5351" transform="translate(0,0)"/>
<path d="" fill="#515658" transform="translate(0,0)"/>
<path d="" fill="#615532" transform="translate(0,0)"/>
<path d="" fill="#545D5E" transform="translate(0,0)"/>
<path d="" fill="#4F5657" transform="translate(0,0)"/>
<path d="" fill="#555E5A" transform="translate(0,0)"/>
<path d="" fill="#535D5B" transform="translate(0,0)"/>
<path d="" fill="#525957" transform="translate(0,0)"/>
<path d="" fill="#535D5B" transform="translate(0,0)"/>
<path d="" fill="#4C5552" transform="translate(0,0)"/>
<path d="" fill="#535953" transform="translate(0,0)"/>
<path d="" fill="#535958" transform="translate(0,0)"/>
<path d="" fill="#525B5A" transform="translate(0,0)"/>
<path d="" fill="#545B56" transform="translate(0,0)"/>
<path d="" fill="#535C5C" transform="translate(0,0)"/>
<path d="" fill="#535B5A" transform="translate(0,0)"/>
<path d="" fill="#4D5452" transform="translate(0,0)"/>
<path d="" fill="#545D5A" transform="translate(0,0)"/>
<path d="" fill="#535C59" transform="translate(0,0)"/>
<path d="" fill="#4C5552" transform="translate(0,0)"/>
<path d="" fill="#4C5851" transform="translate(0,0)"/>
<path d="" fill="#555C57" transform="translate(0,0)"/>
<path d="" fill="#565D56" transform="translate(0,0)"/>
<path d="" fill="#535753" transform="translate(0,0)"/>
<path d="" fill="#545A55" transform="translate(0,0)"/>
<path d="" fill="#535854" transform="translate(0,0)"/>
<path d="" fill="#565B52" transform="translate(0,0)"/>
<path d="" fill="#575A57" transform="translate(0,0)"/>
<path d="" fill="#646963" transform="translate(0,0)"/>
<path d="" fill="#4D544F" transform="translate(0,0)"/>
<path d="" fill="#545952" transform="translate(0,0)"/>
<path d="" fill="#585B53" transform="translate(0,0)"/>
<path d="" fill="#525952" transform="translate(0,0)"/>
<path d="" fill="#555B54" transform="translate(0,0)"/>
<path d="" fill="#565E57" transform="translate(0,0)"/>
<path d="" fill="#575B55" transform="translate(0,0)"/>
</svg>
